<?xml version="1.0"?>
<svg xmlns="http://www.w3.org/2000/svg" viewBox="0 0 512 512" width="512px" height="512px"><g><g id="outline"><path d="M488,240h-8V128H464v44.73A224.7,224.7,0,0,0,339.31,48H384V32H280V24a8,8,0,0,0-8-8H240a8,8,0,0,0-8,8v8H128V48h44.69A224.7,224.7,0,0,0,48,172.73V128H32V240H24a8,8,0,0,0-8,8v32a8,8,0,0,0,8,8H56a8,8,0,0,0,8-8V248a8,8,0,0,0-8-8H48.62A208.009,208.009,0,0,1,232,49.38V56a8,8,0,0,0,8,8h1.382L121.262,251.688a8,8,0,0,0,1.081,9.969A127.724,127.724,0,0,1,160,352.568V384h-8a8,8,0,0,0-8,8v64a8,8,0,0,0,8,8h8v32h16V464H336v32h16V464h8a8,8,0,0,0,8-8V392a8,8,0,0,0-8-8h-8V352.568a127.724,127.724,0,0,1,37.657-90.911,8,8,0,0,0,1.081-9.969L270.618,64H272a8,8,0,0,0,8-8V49.38A208.009,208.009,0,0,1,463.38,240H456a8,8,0,0,0-8,8v32a8,8,0,0,0,8,8h32a8,8,0,0,0,8-8V248A8,8,0,0,0,488,240ZM48,272H32V256H48ZM248,32h16V48H248Zm8,200a24,24,0,1,1-24,24A24.028,24.028,0,0,1,256,232Zm96,216H160V400H352Zm-16-95.432V384H176V352.568a143.531,143.531,0,0,0-37.871-97.553L248,83.341V216.805a40,40,0,1,0,16,0V83.341L373.871,255.015A143.531,143.531,0,0,0,336,352.568ZM480,272H464V256h16Z" data-original="#000000" class="active-path" data-old_color="#000000" fill="#2e3594"/></g></g> </svg>
