<?xml version="1.0" encoding="utf-8"?>
<!-- Generator: Adobe Illustrator 21.0.0, SVG Export Plug-In . SVG Version: 6.00 Build 0)  -->
<svg version="1.1" id="Capa_1" xmlns="http://www.w3.org/2000/svg" xmlns:xlink="http://www.w3.org/1999/xlink" x="0px" y="0px"
	 viewBox="0 0 1366 768" style="enable-background:new 0 0 1366 768;" xml:space="preserve">
<style type="text/css">
	.st0{display:none;}
	.st1{display:inline;}
	.st2{display:none;opacity:0.6;}
	.st3{display:inline;fill:#9B0BFF;}
	.st4{display:inline;fill:none;stroke:#9B0BFF;stroke-width:3.4706;stroke-miterlimit:10;}
	.st5{opacity:0.2;}
	.st6{fill:#9B0BFF;}
	.st7{fill:none;stroke:#9B0BFF;stroke-width:2.1395;stroke-miterlimit:10;}
	.st8{fill:none;stroke:#9B0BFF;stroke-width:2.6341;stroke-miterlimit:10;}
	.st9{opacity:0.2;fill:#9B0BFF;}
	.st10{opacity:0.2;fill:none;stroke:#9B0BFF;stroke-width:1.9018;stroke-miterlimit:10;}
	.st11{opacity:0.2;fill:none;stroke:#9B0BFF;stroke-width:2.6341;stroke-miterlimit:10;}
	.st12{opacity:0.2;fill:none;stroke:#9B0BFF;stroke-width:2.3811;stroke-miterlimit:10;}
	.st13{opacity:0.2;fill:none;stroke:#9B0BFF;stroke-width:2.5078;stroke-miterlimit:10;}
	.st14{opacity:0.2;fill:none;stroke:#9B0BFF;stroke-width:2.557;stroke-miterlimit:10;}
	.st15{fill:none;stroke:#9B0BFF;stroke-width:2.1501;stroke-miterlimit:10;}
	.st16{fill:none;stroke:#9B0BFF;stroke-width:2.3778;stroke-miterlimit:10;}
	.st17{opacity:0.2;fill:none;stroke:#9B0BFF;stroke-width:1.7167;stroke-miterlimit:10;}
	.st18{opacity:0.2;fill:none;stroke:#9B0BFF;stroke-width:2.3778;stroke-miterlimit:10;}
	.st19{opacity:0.2;fill:none;stroke:#9B0BFF;stroke-width:2.1495;stroke-miterlimit:10;}
	.st20{opacity:0.2;fill:none;stroke:#9B0BFF;stroke-width:2.2638;stroke-miterlimit:10;}
	.st21{opacity:0.2;fill:none;stroke:#9B0BFF;stroke-width:2.3083;stroke-miterlimit:10;}
</style>
<g id="Capa_1_1_" class="st0">
	<g class="st1">
		<path d="M493.6,732.2c8,3.5,15.9,7.1,24,10.4c7.5,3.1,14.8,6.4,22.2,9.7c3.3,1.4,6.5,3.3,9.9,4.3c3.5,1,3.8,5.5,1,7.6
			c-3.8,2.9-7.6,5.9-11.3,8.8c-5.5,4.3-11.1,8.6-16.8,12.7c-2.4,1.7-4.6,3.7-6.9,5.6h3.4c1.6-1.4,3.4-2.6,5.2-3.9
			c2.3-1.7,4.4-3.7,6.7-5.4c6-4.5,11.9-9.1,17.9-13.7c0.3-0.2,0.5-0.4,0.8-0.6c2.7-1.9,3.3-1.8,5.1,1c1.9,3,4.3,5.3,8,5.9
			c3.3,0.5,8.3-1.6,10-4.5c0.4-0.7,0.8-1.4,1.4-1.9c0.7-0.6,1.5-0.8,2.5-0.5c4.9,1.6,9.7,3.6,14.5,5.5c2.4,1,2.7,1.3,2.2,3.7
			c-0.4,1.7,0,3.3,0.2,5c0.1,0.9,0.2,1.4,0.2,1.9c1.1,1.3,2.1,2.7,3.5,4.1c0.5,0.5,1,0.9,1.5,1.3c0.1,0.1,0.2,0.1,0.3,0.2
			c0.4,0.2,0.7,0.4,1.1,0.6c1.9,0.3,3.8,0.4,5.2,0.2c0.8-0.1,1.7-0.2,2.6-0.5c2.3-0.8,4.5-2.2,6.6-3.6c2.5-5.2,2.3-13.5-3.3-18.2
			c-2.7-2.2-5.5-3-8.9-2.2c-1.9,0.5-3.4,1.4-4.6,2.9c-1.7,2.3-3.7,2.5-6.3,1.5c-4.4-1.6-8.9-3.2-13.3-4.8c-2-0.7-2.9-1.8-2.9-4
			c0-3.2-0.8-6.2-2.8-8.8c-3.7-4.8-10.2-7-15.7-1.4c-0.5,0.5-0.9,0.9-1.4,1.4c-1.6,1.6-2,1.6-4,0.7c-0.5-0.2-1-0.5-1.5-0.8
			c-8.3-5.1-17-9.6-25.3-14.7c-5.2-3.2-10.6-6-15.8-9.1c-4.4-2.6-8.7-5.3-13.2-7.8c-10-5.7-19.9-11.6-29.9-17.3
			c-6-3.4-11.8-7-17.9-10.3c-1.2-0.6-2.4-1.1-3.4-2.1c-1.7-1.7-2.2-1.6-3.9,0.1c-1.1,1.1-1.9,2.5-3.1,3.6c-1.6,1.5-3.3,3-4.4,5
			c-0.8,1.4-3.6,2.2-4.9,1.4c-1.9-1.1-4-1.7-6-2.5c-2.9-1.2-5.9-2.4-8.8-3.7s-6-2.2-8.8-3.9c-1.5-0.9-3.2-1.8-4.9-2.4
			c-5.6-1.9-10.9-4.5-16.4-6.8c-1.9-0.8-2.7-2.1-2.5-4.1c0.2-2.6-0.5-5.1-1.6-7.4c-2-4.2-5.3-6.5-10.1-6.3c-0.6,0-1.1-0.1-1.7,0
			c-2.2,0.4-3.6-0.6-4.6-2.6c-2.7-5.2-5.4-10.4-7.9-15.6c-0.6-1.2-0.4-2.1,0.4-3.1c0.6-0.8,1.7-1.4,1.6-2.6
			c-0.1-1.7,0.5-3.2,0.9-4.7c0.4-1.6,0.3-3.1-0.4-4.7c-0.7-1.5-1.2-3.1-1.7-4.7c-0.4-1.3-1.2-2.3-2.5-2.7c-1.3-0.5-2.5-1.1-3.5-2.1
			c-2.5-2.6-7.7-1.7-9.8,0.6c-2,2.2-3.6,4.5-4.3,7.4c-0.3,1.4-0.8,2.7-2.5,2.9c-2.1,0.2-4.1,0.5-6.2,0.4c-4.5-0.2-9.1-0.5-13.6-0.9
			c-6.7-0.6-13.4-0.7-20.1-0.8c-4-0.1-7.9-1.2-11.9-0.8c-1.8,0.2-3.8-0.2-5.7-0.2c-3.4,0-6.7,0-10-0.7c-0.7-0.2-1.4-0.1-2.1,0
			c-2.5,0.4-4.9,0.3-7.3-0.5c-1.2-0.4-2.3-0.5-3.5-0.3c-1.3,0.1-2.7,0.2-4.1,0c-2.4-0.4-4.8-0.3-7.2-0.3c-1.3,0-2.5,0-3.7-0.7
			c-0.8-0.4-1.8-0.5-2.6-0.1c-1.4,0.7-2.8,0.3-4.2-0.1c-0.8-0.3-1.7-0.4-2.6-0.3c-3.2,0.4-6.5,0.5-9.5-0.2c-3.5-0.8-7-0.6-10.5-0.5
			c-3.8,0.2-7.5-0.3-11.2-0.5c-3.5-0.2-7-0.8-10.5-1c-7.3-0.4-14.7,0.1-22-0.6c-2.2-0.2-4.5,0-6.7-0.5c-2.7-0.5-5.4-0.8-8.1-0.2
			c-0.9,0.2-1.9,0.1-2.9-0.1c-1.5-0.3-3-0.4-4.5-0.3c-5,0.5-9.8-1.1-14.8-0.5c-0.1,0-0.2,0-0.2,0c-4.4-0.5-8.7-0.9-13.1-0.9
			c-0.8,0-1.6-0.1-2.4-0.2c-2.2-0.3-2.6-0.2-3.7,1.7c-1.6,3-3.6,5.7-5.4,8.5c-0.4,0.5-0.7,1.1-1,1.7c-1.1,2.5-2.6,4.8-4,7
			c-2.1,3.4-4.1,6.8-6.2,10.2c-1.4,2.2-3.8,4-3.9,6.9c-1.5,1.4-2,3.5-3.1,5.1c-2.7,3.9-5,8.1-7.5,12.2c-0.9,1.4-1.5,3-2.3,4.4
			c-2.8,4.8-5.7,9.6-8.6,14.3c-1.1,1.8-1.9,3.7-3.1,5.4c-1.3,1.8-1.3,1.8-3.3,1.4c-1.2-0.3-2.5-0.5-3.8-0.7c-3.2-0.5-5.9,1-7,4.1
			c-0.2,0.6-0.4,1.2-0.6,1.8c-0.1,0.5-0.2,1-0.8,1.1c-0.7,0.1-1-0.5-1.1-1.1c-0.2-1.2-0.7-1.9-2-2.3c-2.6-0.7-3.3-2-2.6-4.7
			c0.2-0.9,0.6-1.9,0.6-2.8c0-4.1,0.3-8.1,1-12.2c0.8-4.8,1.3-9.6,1.8-14.5c0.2-2.7-0.5-4.5-2.7-5.9c-0.6-0.4-1-0.3-1.5,0.1
			c-1.1,1-2.4,1.9-3.4,3c-2.1,2.6-4.8,4.7-7.1,7.1c-2,2.2-4.4,4.1-6.6,6.2c-3.2,3-6.8,5.6-9.5,9.1c-0.4,0.6-1,1-1.6,1.4
			c-3.1,2.1-5.8,4.7-8.5,7.3c-2.7,2.7-5.6,5.3-8.1,8.1c-0.8,0.9-1.8,1.6-3.1,1.4v3.8c1.2,0,2-0.8,2.8-1.6c3.7-3.6,7.4-7.3,11.6-10.3
			c0.6-0.5,1.2-1,1.7-1.7c3.6-4.2,7.6-8,11.7-11.7c1.9-1.7,3.5-3.7,5.7-5c0.9-0.5,1.4-1.7,2.3-2.4c3.5-3.3,7.1-6.5,10.4-9.9
			c0.5-0.5,1.1-1.1,1.9-0.7c0.8,0.4,0.7,1.2,0.8,1.9c0.3,4-0.6,7.8-1.1,11.7c-0.6,4.2-1.3,8.4-1.4,12.6c0,1.7-0.6,3.5-0.7,5.2
			c-0.2,1.7-1.1,2.7-2.8,3.2c-3.3,1-5.8,3-7.6,5.9c-0.8,1.2-1.4,2.5-1.7,4c-0.4,1.8-1.3,2.9-3.1,3.6c-4.8,2.2-9.9,3.7-15,4.8
			c-3.8,0.8-7.6,2-11.4,2.9c-1.4,0.4-2.8,0.7-4.3,0.6v2.9c3.1-0.7,6.3-0.5,9.5-0.9c3.6-0.5,7.3-0.7,10.9-1.1c3.3-0.4,6.7-0.4,10-1.1
			c1.8-0.4,3.7,0.4,5.2,1.4c2.6,1.7,5.1,3.6,7.8,5.1c1,0.6,1.2,1.4,0.6,2.4c-0.4,0.5-0.7,1.1-1,1.6c-0.6,0.9-0.8,1.8-0.3,2.7
			c0.7,1.4,0.4,2.7-0.5,3.8c-0.8,1.2-1.5,2.4-2,3.8c-0.6,1.6-1.2,1.6-3,1.7c-2.9,0.1-5.3-1.4-8-2.1c-2.3-0.7-4.6-1.5-6.5-3
			c-0.6-0.5-1.3-0.6-2-0.6c-3.5-0.2-6.6-1.7-9.7-3c-1.6-0.6-3.3-1.2-5-1.6c-1.4-0.4-2.7-0.9-3.7-2c-0.6-0.7-1.4-1.1-2.3-1.1v3.4
			c1.9-0.1,3.4,0.9,4.8,1.8c0.8,0.6,1.6,1,2.6,1c1.9,0.1,3.5,1,5,2.1c0.7,0.6,1.4,1.1,2.3,1.2c4.9,0.5,9.4,2.3,14,4.1
			c1.5,0.6,2.9,1.3,4.5,1.7c0.7,0.2,1.3,0.6,1.9,0.9c1,0.6,1.2,1.4,0.7,2.4c-0.9,1.8-2,3.4-3.2,5.1c-0.4,0.6-0.9,1.2-1.1,1.8
			c-0.8,2.7-2.7,4.7-4.1,7c-2,3.6-4.6,6.8-6.5,10.6c-0.1,0.1-0.1,0.2-0.2,0.3c0.6,0.4,1.3,0.9,1.9,1.4c1-1.5,2-2.9,3-4.3
			c4.5-6.4,8.7-13,12.5-19.9c0-0.1,0.1-0.1,0.1-0.2c0.5-0.7,0.9-1.8,1.9-1.5c1.2,0.4,1,1.5,0.8,2.4c-0.8,4.7-1.8,9.4-2.4,14.2
			c-0.9,7.1-2.2,14.2-3.2,21.3c-0.1,0.6-0.2,1.1-0.4,1.6h3.4c1-3.3,1.9-6.8,3.2-10c2.1-5.2,4.1-10.4,6-15.7c1-2.7,1.3-5.6,2.3-8.3
			c0.9-2.5,1.4-2.8,3.9-2.1c0.6,0.2,1.2,0.4,1.8,0.7c3.6,2.1,7.5,3.3,11.5,4.5c3.5,1,7,2.2,10.2,4c0.8,0.5,1.8,0.7,2.7,0.9
			c3.2,0.7,6.3,1.7,9.4,3c2.8,1.2,5.7,2.1,8.6,3.1c5,1.8,10.1,3.5,15.1,5.4c3.1,1.2,6.2,2.5,9.5,3.2c1.7,0.3,2.8,1.5,3,3.3
			c0.2,1.1,0.6,2.2,1,3.2c1.3,2.7,3.4,3.9,6.3,3.9c2.9-0.1,4.7-1.6,5.8-4.2c0.3-0.7,0.5-1.3,0.7-2c0.1-0.3,0.2-0.5,0.3-0.8
			c0-0.8-0.1-1.6-0.3-2.3c-0.4-1.4-2.4-5.5-4.4-7.2c-0.4,0-0.8,0-1.3-0.1c-0.2,0-0.4,0-0.6-0.1c-0.2,0-0.3,0-0.5,0
			c-2.3,0-4.2,1.1-5.7,2.9c-1.7,2-2.5,2.4-5,1.4c-4.7-1.9-9.4-3.4-14.1-5.2c-3.3-1.3-6.6-2.9-10.1-3.6c-1.2-0.2-2.3-1.1-3.5-1.5
			c-5-1.8-10.1-3.6-15.1-5.4c-4.7-1.7-9.3-3.4-13.9-5.3c-3.2-1.3-6.5-2.1-9.6-3.7c-2.4-1.3-3-2.2-2.1-4.8c1-3,1.7-6.2,4.1-8.6
			c0.7-0.7,0.7-1.6,0.4-2.5c-0.3-1.1,0-2.2,0.3-3.3c1.5-5.2,3.5-10.3,5-15.5c0.7-2.6,3-3.7,5.1-4.7c2-0.9,4.2-1.4,6.5-1.3
			c1.7,0.1,3-0.9,4.6-1.1c1.3-0.2,2.6-0.5,4-0.3s2.7-0.2,4-0.6c2.9-0.8,5.8-1.3,8.8-1.2c0.7,0,1.5,0.1,2.1-0.3
			c1.8-1,3.9-0.8,5.8-1.2c1.6-0.4,3.2-0.7,4.9-0.9c0.8-1.1,2.1-1.8,3.8-1.8c1,0,1.9,0.3,2.6,0.7c2.2-0.5,4.4-0.8,6.6-1.2
			c0.2,0,0.5,0,0.7,0c3.7-1.5,7.9-1,11.7-2.2c2.5-0.8,5.1-0.7,7.6-0.9c1-0.1,1.9-0.2,2.8-0.5c2.1-0.9,4.4-0.6,6.6-1
			c0.2,0,0.3,0,0.5,0c0.5-0.1,1-0.1,1.5-0.2c1.8-0.3,3.6-0.7,5.4-1l0,0c0.4-0.1,0.9-0.1,1.3-0.2c0.2,0,0.4,0,0.6,0
			c0.8-0.3,1.6-0.5,2.5-0.8c3.8-1.1,6.3,0.3,8.4,3.3c0.8,1.1,1.2,2.3,1.5,3.7c1.6,6.6,0.6,13.4,0.9,20.1c0.2,6-0.4,12,0.4,18
			c0.1,0.7-0.1,1.4-0.2,2.1c-0.3,1.7-0.4,3.4-0.1,5c0.2,1.5,0.4,2.8-0.3,4.2c-0.3,0.6-0.2,1.2-0.2,1.9c0.6,6,0.9,11.9,0.9,17.9
			c0,0.7,0,1.4-0.2,2.1c0.8,0.4,1.7,0.8,2.5,1.3c0.1-3,0.4-6,0.6-9.1c0.1-1,0.1-1.9-0.1-2.9c-0.8-3.8-0.5-7.6-0.5-11.5
			c0-2.3,0.1-2.3,2.3-2.9c2.3-0.6,3.6-2.6,3.2-4.9c-0.1-0.7-0.3-1.4-0.5-2.1c-0.4-1.3-1.2-1.9-2.6-2.1c-2.2-0.3-2-0.4-2.4-2.4
			c-0.7-3.4,0-6.7,0-10c0-7.8,0-15.5,0-23.3c0-0.8,0-1.6,0.1-2.4c0.2-1.1,1.3-2,2.4-2c1.1,0,1.9,0.5,2.2,1.5c1,3.6,2.7,7,3,10.8
			c0,0.6,0,1.4,0.3,1.9c1.4,2,1.6,4.3,2.4,6.5c0,0.1,0.1,0.1,0.1,0.2c0.8,6.6,4.6,12.4,5.4,19c0.2,1.5,0.8,2.9,1.4,4.3
			c0.9,2,1.6,4,1.9,6.2c0.3,1.8,1.2,3.3,1.7,5c2.1,6.6,4.3,13.2,6.2,19.9c0.9,3.4,1.7,6.8,3,10.1c0.5,1.3,0.9,2.7,1,4.2h2.4
			c-1.8-6.9-4.5-13.5-6.2-20.4c-1.3-5.1-3.6-9.9-4.5-15.2c-0.3-1.7-1.2-3.3-1.8-4.9c-0.5-1.4-0.8-2.9-1.1-4.4
			c-0.5-2.3-1.4-4.6-2.2-6.8c-1.8-4.6-2.8-9.5-4.3-14.2c-0.6-1.9-1.3-3.8-1.8-5.7c-0.7-2.8-2.1-5.5-2.1-8.5c0-1.7-0.8-3.2-1.6-4.7
			c0.2-0.1,0.3-0.2,0.5-0.2c1.1,1.6,2.2,3.1,3.3,4.7c0.4,0.6,0.8,1.2,1.1,1.9c2.7,5.9,6.3,11.3,9.3,17c1.3,2.5,2.4,5.1,3.7,7.5
			c1.7,2.9,3,6,4.8,8.8c2.2,3.4,4.2,7,5.6,10.9c0.7,2.1,1.8,4,3.2,5.9c2.2,2.9,3.8,6.3,5.4,9.6c2.8,5.6,5.8,11,8.9,16.4
			c0.4,0.8,0.9,1.5,1,2.4h2.4c-0.2-0.5-0.3-0.9-0.5-1.4c-2.2-4.2-4.3-8.4-6.6-12.5s-4.6-8.3-6.6-12.5c-1.1-2.3-2-4.4-3.6-6.5
			s-2.8-4.5-3.8-6.9c-1.9-5-5-9.4-7.4-14.2s-5.5-9.4-7.9-14.2c-1.2-2.3-3.1-4.3-3.7-7c-0.3-1.3-0.9-2.4-1.7-3.4
			c-1.3-1.7-2.5-3.3-3.3-5.3c-0.9-2.2-1.5-4.5-3.2-6.3c-1.3-1.4-0.2-4,1.6-4c1.7-0.1,3.5-0.2,5.2,0.3c3.3,1,6.6,2.1,10,2.5
			c3.5,0.4,7,1,10.4,1.9c2.3,0.6,4.6,1.3,7,1.5c1.3,0.1,2.5,0.5,3.7,1c1.8,0.7,3.7,1.3,5.8,1.4c2,0,4.2-0.1,6.1,0.9
			c1.3,0.7,2.7,0.9,4.1,1c3.4,0.3,6.7,1.4,10,2.2c3.7,0.8,7.5,1.3,11.2,2.2c4.3,1,8.9,0.9,13,2.9c0.4,0.2,1,0.3,1.4,0.2
			c1.6-0.3,3.2,0.1,4.7,0.4c7.2,1.4,14.1,4,21.5,4.4c0.6,0,1.1,0.2,1.6,0.4c3.8,1.1,7.5,2.6,11.6,2.4c1-0.1,2,0.4,3,0.7
			c1.2,0.3,2.3,0.7,3.5,1c11,2.3,21.9,4.6,32.9,6.9c0.8,0.2,1.6,0.4,2.2,1c1.2,1.3,2.8,2.2,4.3,3.1c1.3,0.8,2,1.9,2.3,3.5
			c0.6,2.9,0.7,5.9,0.8,8.8c0.3,7.7-0.1,15.3,0.6,23c0.3,2.8-0.6,5.1-2.3,7.1c-2.1,2.4-2.4,5.2-1.9,8.1c0.4,2-0.3,3.2-1.8,4.3
			c-0.4,0.3-0.8,0.7-1.2,1.1h14.4c1.2-1.6,2.6-3,3.1-5.3c0.6-2.5,0.3-4.8-0.6-7c-0.6-1.4-0.4-2.4,0.5-3.5c2.4-2.7,4.7-5.4,7.1-8.1
			c2-2.2,4-4.4,6-6.5c0.5-0.5,1-1,1.6-1.5c1.3-1,2.1-1,3,0.4c1.2,1.8,2.4,3.6,3.5,5.5c1.2,2.1,2.6,4,3.9,6c0.5,0.7,0.9,1.5,1.4,2.2
			c1.3,2,1.3,3.9,0.1,6.1c-2.1,4-4.9,7.5-6.6,11.7h3.8c1.4-3.7,3.6-6.9,5.8-10.1c0.5-0.7,1.1-0.6,1.6-0.1c0.6,0.7,1.3,1.4,1.8,2.2
			c1.6,2.6,3.7,4.9,4.8,7.9h3.8c-0.5-1.7-1.9-2.7-2.8-4.2c-1.8-3.1-3.5-6.3-5.5-9.3c-1.3-1.9-1.1-2.9,0.3-4.8c1.7-2.4,3.2-5,4.7-7.5
			c1.7-2.9,3.3-5.9,5.1-8.7c1.8-2.8,3.5-5.7,5.2-8.6c2.7-4.7,5.7-9.2,8.4-13.9c3.3-5.7,6.5-11.6,10-17.2c1.4-2.3,2.7-4.5,4.5-6.5
			c1.1-1.3,1.5-1.5,3.1-0.8c3.4,1.5,6.9,2.6,10.2,4.1c5.8,2.7,11.8,4.9,17.6,7.6C477.6,725.4,485.7,728.8,493.6,732.2z M24.8,721
			c-0.2,0.1-0.5,0.2-0.7,0.2c-2.5,0.2-5.2-0.3-7.4,1c-0.5-0.2-0.9-0.2-1.3-0.4c-0.2-0.1-0.3-0.3-0.4-0.5c-0.1-0.4,0.2-0.6,0.5-0.7
			c0.3-0.1,0.6-0.2,0.9-0.2c1.7,0,3.3-0.7,4.8-1.4c1-0.5,2.1-0.6,3.3-0.5c0.7,0.1,1.3,0.3,1.4,1.1C25.9,720.3,25.4,720.7,24.8,721z
			 M40,762.2c-2,4.2-3,8.7-5,12.9c-0.2,0.4-0.3,0.9-0.9,1.2c-0.5-0.7-0.5-1.6-0.3-2.3c1.5-6,1.3-12.3,2.6-18.4
			c0.1-0.6,0.2-1.3,0.5-1.8c0.4-0.9,1.1-1.4,2.1-1c1,0.3,1.1,1.2,0.7,2c-0.8,1.7-0.6,3.2,0.3,4.8C40.5,760.4,40.4,761.4,40,762.2z
			 M46.2,743.4c-0.7,2.5-1.6,4.8-2.7,7.1c-0.2,0.4-0.6,0.7-0.9,0.6c-1.3-0.6-2.8-0.4-4.1-1.1c-1.2-0.7-1.5-1.8-1.4-3.1
			c0.2-2,1.3-3.7,2.1-5.5c0.3-0.8,1.1-0.8,1.9-0.6c1.4,0.4,2.9,0.8,4.4,1.2C46.1,742.2,46.4,742.7,46.2,743.4z M53.3,722.2
			c-0.7,1.9-0.9,4.1-1.9,6c-0.6,1.2-1.3,1.2-2.2,0.2c-1.1-1.3-1.2-2.3-0.3-3.7c0.8-1.2,1.7-2.3,2.6-3.4c0.3-0.4,0.7-0.8,1.2-0.6
			C53.4,720.8,53.4,721.4,53.3,722.2z M154.9,695.3c-2,0.1-4,0.4-5.9,1c-1.8,0.5-3.8,0.8-5.7,1c-0.6,0.1-1.3,0.1-1.9,0.2
			c-7.6,1.3-15.2,2.7-22.9,3.9c-3.9,0.6-7.7,1.5-11.6,1.8c-3.8,0.3-7.5,1.5-11.4,1.2c-0.6,0-1.3,0-1.9,0.2c-3,1.2-6.3,1.2-9.4,1.7
			c-0.7,0.1-1.4,0.3-2.1,0.5c-0.5,0.1-1.1,0.4-1.6,0.5c-5.1,0.4-10,2-15.1,2.4c-2.5,0.2-5.2-1.7-3.7-5.2c0.4-0.9,0.9-1.9,1.5-2.7
			c2.6-3.6,4.8-7.4,6.9-11.2c3-5.4,6.4-10.7,9.8-15.9c2.1-3.2,3.6-6.7,5.7-10c0.6-0.9,1.3-1.8,1.9-2.8c0.7-1,1.4-1.2,2.4-0.4
			c0.7,0.6,1.6,1,2.6,1.1c2.7,0.3,4.1-0.7,4.7-3.3c0.5-2.4,0.3-4.6-1.6-6.4c-0.2-0.2-0.3-0.4-0.5-0.5c0-0.1,0-0.1-0.1-0.4
			c0.5-0.5,1-0.3,1.4,0c1.3,1.1,2.9,1.7,4.4,2.5c1.2,0.6,2,1.5,2.4,2.8c0.8,2.2,1.4,4.4,3,6.2c0.8,1,1.6,1.5,2.8,1.5
			c1.8,0,3.6,0.1,5.3-0.9c1.3-0.8,2.6-0.5,4.1,0.1c6.7,2.9,12.7,7,19.1,10.4c4.7,2.5,9.2,5.4,13.8,8.2c1.9,1.1,3.9,2.2,5.7,3.5
			c1.2,0.9,2,2,2.2,3.6C159.8,693.2,158.2,695.2,154.9,695.3z M179.1,680.3c-2.5-3.6-6.4-4.3-10.4-4.5c-1.5-0.1-2.8,0.8-3.9,1.7
			c-1.7,1.3-3.3,2.8-4.4,4.7c-1,1.7-1.5,1.9-3.3,0.9c-3.5-1.9-7-3.8-10.4-5.9c-8.3-5.2-17.1-9.7-25.6-14.7c-0.5-0.3-1-0.6-1.4-0.9
			c-1.6-0.9-2.5-2.1-2.1-4.1c0.3-1.5,0.2-3.2-0.3-4.7c-1-3-3.4-4.3-5.9-5.6c-0.6-0.3-1.3-0.1-1.8,0.2c-1.5,0.8-3.1,1.3-4.3,2.6
			c-1.1,1.2-2.3,1.4-3.7,0.6c-1.2-0.6-2.5-1.2-3.7-1.8c-1.3-0.7-1.5-1.1-1-2.5c0.5-1.5,1.2-3,2-4.3c2.6-4,5.1-8.1,7.4-12.3
			c0.8-1.5,2-2.7,2.8-4.2c0.6-1,1.5-1.4,2.8-1.3c6.4,0.1,12.8,0.7,19.2,0.7c3.8,0,7.7,0.3,11.5,0.4c0.8,0,1.6,0.3,2.3,0.5
			c0.9,0.2,1.7,0.5,2.6,0.4c2.9-0.3,5.7,0.2,8.5,0.7c0.8,0.2,1.6,0.1,2.3-0.2c1.4-0.6,3-0.5,4.5-0.4c6.3,0.3,12.6,1.1,18.9,1.4
			c4.9,0.3,9.9,0.4,14.8,0.5c7.9,0.1,15.7,2,23.6,1.4c3.4,0.8,7-0.1,10.4,1.1c0.4,0.2,0.9,0,1.4,0c0.6,0,1.4-0.3,1.9-0.1
			c3.2,1.4,6.4,0.3,9.6,0.3c3.9,0,7.8,0.2,11.7,0.9c0.5,0.1,1.2,0.2,1.7,0.1c2-0.6,3.9-0.1,5.9,0.6c2.6,0.9,5.4,0.6,8.1,0.3
			c2.2-0.3,4.5-0.1,6.7-0.2c4.3-0.1,8.5,1,12.8,1.3c0.7,0.1,1.5,0.1,2.2,0c1.9-0.3,3.8,0,5.7,0c5.7,0,11.3,0.8,17,0.6
			c3.9-0.2,7.8,0.5,11.7,0.6c2.1,0,4.2,1,6.4,1c0.9,0,1.5,0.6,1.8,1.3c0.5,1,1,2,1.4,3c2.3,4.9,6.4,7.2,11.7,6.3
			c1.9-0.3,3.1,0.2,4,1.8c1.2,2.1,2.4,4.2,3.5,6.3c1.7,3.2,3.1,6.5,4.9,9.6c1.1,1.9,1,2.9-0.4,4.6c-1.4,1.6-1.8,3.5-2.5,5.4
			s-1,2.3-3,2.4c-1.8,0.1-3.5,0-5.3,0c-7.3,0.6-14.5,0.4-21.8,0.6c-4.6,0.1-9.2,0.4-13.8,0.6c-9.9,0.5-19.8,1.2-29.7,0.8
			c-1.5-0.1-3,0.4-4.5,0.6c-3,0.4-6,0.8-9-0.2c-0.6-0.2-1.1,0-1.6,0.2c-1.6,0.8-3.4,0.8-5.2,0.8c-6.4,0-12.8-0.1-19.2,0.1
			c-3,0.1-6.1,0.1-9.1,0.1c-3.4,0.1-6.9,0-10.3,0.6c-1.2,0.2-2.6,0.1-3.8,0.1c-2.1,0-4.1,0-6.2,0.3c-1.8,0.3-3.5-0.3-5.2-0.8
			c-2-0.6-3.8-0.6-5.5,0.6c-0.7,0.4-1.4,0.6-2.3,0.6c-3.1,0.3-6.2,0.3-9.3,0.6c-2.9,0.3-5.7,0.5-8.6,0.6
			C182.3,683,180.5,682.4,179.1,680.3z M357.2,709.3c-2.2,0.1-4.3,0.9-5.9,2.7c-1.1,1.2-2.4,2.2-3.2,3.6c-1.7,2.9-2.1,6-1.8,9.3
			c0,0.4,0.2,0.8,0.2,1.2c0.2,2.1-0.5,2.9-2.6,2.4c-5.6-1.1-11.1-2.3-16.7-3.4c-6.5-1.4-13.1-2.6-19.6-4.3c-4.6-1.2-9.4-1.7-14-3.1
			c-1.1-0.3-2.2-0.4-3.3-0.6c-0.2,0-0.5,0-0.7-0.1c-4.1-2.2-9-1.1-13.1-3.5c-0.4-0.2-0.9-0.3-1.4-0.3c-4.6,0.2-8.8-1.3-13.2-2.2
			c-2-0.4-4-1.1-6.1-1.3c-1.9-0.2-3.4-1.5-5.2-1.7c-3.6-0.3-7.1-1.3-10.8-1.6c-4.2-0.3-8.2-1.3-12.2-2.3c-2.6-0.6-5.4-0.8-7.8-2.2
			c-0.3-0.2-0.6-0.2-0.9-0.2c-2.6,0.3-5.1-0.5-7.5-1.1c-4.7-1.2-9.6-1.9-14.3-2.9c-3.5-0.8-7-1.7-10.6-2.1c-1.8-0.2-2.8-2-4.5-2.6
			c-0.2-0.1-0.4-0.7-0.4-1.1c0-1.4-0.1-2.7,0-4.1c0.1-1.2,0.8-1.9,2-2c2.6-0.2,5.2-0.9,7.3-0.6c2.4,0,4.3-0.1,6.1,0.4
			c0.9,0.2,1.7,0.1,2.6-0.2c1.4-0.4,2-0.4,2.5,0.2c0.8-0.6,1.7-0.9,2.9-0.9c0.8,0,1.4,0.2,2,0.4c0.6-0.3,1.3-0.4,2-0.4
			c0.4,0,0.7,0,1.1,0.1c0.3-0.1,0.6-0.1,0.9-0.1h1c0.3,0,0.6,0,0.9,0.1c0.9-0.7,2-1.1,3.1-1.1h5c0.8,0,1.6,0.2,2.2,0.6
			c0.8-0.1,1.6-0.2,2.4-0.2c3-0.3,5.9-0.2,8.8-0.1c2.8,0.1,5.6-0.2,8.3-0.5c1.6-0.2,3.2-0.2,4.8,0c2.6,0.3,5.2,0.6,7.8-0.4
			c0.4-0.2,1-0.2,1.4-0.1c1.9,0.5,3.8,0.3,5.7-0.2c2.3-0.6,4.5-0.2,6.7,0.2c1.3,0.2,2.5,0.2,3.8-0.1c3.5-0.7,6.9-1,10.4,0.1
			c0.5,0.2,0.9,0.1,1.4,0c3.9-0.9,7.9-0.9,11.9-1.2c5.1-0.3,10.2-0.5,15.3-0.8c5.9-0.3,11.8-1.4,17.7-0.3c1.4,0.3,2.8-0.4,4.3-0.4
			c6.7,0,13.4,0,20.2,0c3.4,0,3.6,0.2,4.9,3.4c0.8,2,1.9,3.9,3.5,5.4c1.4,1.3,1.7,2.8,1.2,4.6c-1.2,4.1-1.9,8.3-2.9,12.4
			C360.2,709.1,359.7,709.2,357.2,709.3z M381.2,757.1c-3,3.3-6,6.6-9,9.9c-2.2,2.4-3.9,5.1-6.3,7.3c-1.9,1.8-1.9,1.7-4.2,0.8
			c-1.1-0.4-1.7-1.2-1.6-2.3c0.2-3.8-0.6-7.5-0.4-12.4c-1.1-6,0-13.3-0.9-20.4c-0.2-1.3,0.3-2.4,1.5-3c2.2-1.1,4.3-2.2,6-3.9
			c0.8-0.8,1.5-0.3,2,0.4c1,1.4,2,2.9,3,4.4c3.2,4.8,6.3,9.6,9.5,14.4c0.4,0.6,0.6,1.3,0.9,1.9C382.2,755.3,382,756.2,381.2,757.1z
			 M382.8,750.7c-0.8-1-1.4-2.1-2.1-3.2c-3.7-5.8-7.4-11.6-11.1-17.4c-0.7-1.1-1-2.3-1.1-3.4c0.4-2.6,0.3-4.9-0.1-7.3
			c-0.4-2.3-1.3-4.3-2.9-5.9c-1.9-1.8-2.4-4-1.8-6.4c1.1-4.6,1.9-9.2,3.4-13.7c0.5-1.6,1.4-2.5,3.1-2.3c2.8,0.2,4.9-1,6.7-3.1
			c0.4-0.5,0.9-0.9,1.3-1.4c1.5-2.3,1.8-2.7,5.3-1.4c3.6,1.3,7,3,10.6,4.5c10.4,4.5,20.8,9,31.2,13.5c0.1,0.1,0.3,0.1,0.4,0.2
			c2.2,1,2.4,1.8,0.8,3.5c-5,5.5-10.1,10.9-14.9,16.5c-3.5,4.1-7.4,7.9-10.7,12.3c-1.7,2.3-4,4.2-5.8,6.4c-2.6,3.1-5.5,6-8.3,8.9
			C385.1,752.8,384.3,752.7,382.8,750.7z M435.3,711.6c-2.7,4.7-5.5,9.4-8.3,14c-4.4,7.4-8.9,14.8-13.4,22.1
			c-3.7,6.2-7.2,12.4-11.1,18.5c-1,1.5-1.7,3.1-2.6,4.6c-1.1,1.8-1.7,1.8-3.1,0.3c-0.5-0.5-1-1.1-1.3-1.7c-2.7-4.2-5.4-8.3-8-12.5
			c-1.1-1.7-1-2,0.3-3.6c5.1-5.8,10.5-11.4,15.5-17.3c5.6-6.5,11.5-12.6,17.2-18.9c2.5-2.8,5-5.6,7.5-8.4c2.2-2.3,2.3-2.3,5.1-0.9
			c0.7,0.3,1.5,0.6,2.2,1c0.4,0.2,0.7,0.5,0.6,1.1C435.8,710.4,435.6,711,435.3,711.6z M440.1,703.8c-1,1.5-1.4,1.6-3.2,0.9
			c-0.6-0.2-1.2-0.4-1.8-0.7c-1.1-0.7-1.4-1.6-0.5-2.6c2-2.2,3.8-4.7,6.1-6.7c0.6-0.5,1.2-0.7,2-0.3s1.5,1,1.7,2
			c-0.2,0.3-0.3,0.7-0.5,1C442.6,699.6,441.4,701.7,440.1,703.8z M451.4,710.8c-2.4-1.2-4.8-2.2-7.3-3.1c-2-0.7-2.2-1.6-1.1-3.3
			c1.2-1.9,2.4-3.8,3.6-5.7c0.3-0.5,0.7-1.1,1.5-1.2c0.2,0.1,0.5,0.2,0.8,0.4c6.4,4.1,13.1,7.6,19.7,11.4c3.6,2.2,7.2,4.5,10.9,6.5
			c3.3,1.8,6.5,3.7,9.7,5.7c9.3,5.8,19.2,10.5,28.3,16.6c0.7,0.5,1.4,0.8,2.2,1c0.7,0.2,1.3,0.6,1.7,1.2c0.1,0.2,0.2,0.5,0.1,0.7
			c-0.1,0.4-0.5,0.4-0.8,0.2c-1.6-1-3.5-1.7-5.2-2.4c-5-2.2-10.1-4.5-15.1-6.6c-1.5-0.7-3.1-1.3-4.5-2.2c-2.5-1.6-5.5-2-8.2-3.3
			c-5.6-2.6-11.4-4.7-16.9-7.3C464.3,716.3,457.7,713.9,451.4,710.8z"/>
	</g>
</g>
<g id="Capa_3" class="st0">
	<path class="st1" d="M-9.6,87.9c-0.5,3.1-2.6,4.9-5.3,6.2c-9.3,4.8-19,8.9-28.3,13.8c-8.7,4.6-17.7,8.6-26.7,12.5
		c-5.1,2.2-9.9,4.6-16.2,2.5c-7.3-2.5-12.1,0-14.5,6.6c-2.5,7.2-8.6,8.3-14.8,10.8c0-0.1,0.1-0.2,0.1-0.3c-1.4,0.8-3.2,1.3-5.2,1.3
		l0,0v2.1c4.8,7,10.2,13.5,15,20.5c3.7,5.4,7.9,10.3,11.9,15.5c1.2,1.6,3,2.2,4.9,1.8c6.6-1.3,13.3-0.3,20-1
		c8.3-0.9,16.6-0.9,24.9-1.3c6.9-0.4,13.9-1.1,20.9-0.4c3.5,0.4,7,0.2,10.5-0.4c4.8-0.8,9.6-0.6,14.5-0.8c12-0.6,24-0.4,36-1.2
		c9-0.6,18-0.2,26.9-1.4c4-0.6,8.3,0.2,12.4,0.3c3.5,0.1,7,0.1,10.4-0.8c2.3-0.6,4.6-0.9,6.9-0.7c7.3,0.6,14.7,0.4,21.8-0.3
		c6.8-0.7,13.6-0.7,20.4-1.2c7.1-0.6,14.2-1.1,21.3-1.3c6.8-0.2,13.6-0.2,20.4-1c2.8-0.3,5.6,0.1,8.5,0c9-0.1,18-0.9,26.9-1.5
		c14-0.8,28-0.2,42-1.6c6.3-0.6,12.7-0.1,19-0.2c2.9,0,4.7,1.1,5.7,3.9c1.3,3.5,3.1,6.6,5.9,9.2c5.3,4.8,11.8,5.5,17.9,1.8
		c0.4-0.3,0.8-0.6,1.3-0.8l10.3-11.6c1.1-2.6,1.3-5.1,0.5-7.8c-1.1-3.3-0.4-7.4-4.1-9.8c-1.1-0.7-0.5-2.1,0.1-3.2
		c4.3-7.5,8.8-15,13.7-22.1c1.3-1.8,2.9-2.7,5.1-2.6c1.8,0.1,3.7-0.1,5.5,0.1c9.4,0.7,18-8.1,18.2-17c0.1-4.4,1.7-6.7,5.8-8
		c7-2.3,13.9-4.8,20.7-7.4c13.1-5,26.4-9,39.4-14.3c3.7-1.5,7.5-2.8,11.3-3.9c3.2-1,6.4-0.7,8.7,2.1c3.5,4.3,8.5,6.9,12,11.2
		c1.5,1.9,4,2.7,6.3,1.1c5.5-3.9,11.9-5.9,17.9-8.8c15.9-7.8,31.7-15.7,47.7-23.2c18.4-8.7,36.6-17.7,55-26.5
		c17-8.1,34.1-16.1,50.9-24.5c1.3-0.7,2.7-1.2,4.1-1.9c3.4-1.6,6.2-1,9.1,1.7c5.4,5,11.8,6.7,19,3.9s11.6-8.1,12.3-15.7
		c0.5-4.5,2.4-6.5,6.4-7.6c7.4-2,14.7-4.3,22.1-6.5c3.2-1,5.7-0.3,8.2,1.9c8.2,7.2,19.4,6.7,26.3-1.3c5.2-6,7.6-18.9-2.6-26.7
		c-3.2-2.4-4-4.8-2.5-8.5c1.9-4.6,3.1-9.5,4.7-14.2c1.3-4,2.7-5,6.9-5.2c1.7-0.1,3.3,0,5-0.1c6.6-0.5,11.1-4.3,14.2-9.8
		c1.6-2.7,1-3.9-1.9-4c-9.7-0.1-19.4-0.1-29,0c-2.7,0-3.2,1.1-2.1,3.5c0.7,1.7,1.9,3.1,3.2,4.5c2.1,2.3,2.8,4.8,1.7,7.8
		c-2.1,5.8-4.1,11.6-6.2,17.4c-1.1,3-3.2,4.6-6.4,4.7c-3.6,0.1-6.9,1.3-9.9,3.3c-2.9,2-5.9,1.9-9,0.8c-8.5-2.9-17.2-5.5-25.6-8.6
		c-25.4-9.1-51.2-17.4-76.8-25.9c-6.2-2.1-12.3-4.2-18.4-6.4c-2.7-1-5.4-1.5-8.4-0.4c9.6,5.2,20.5,6.9,30.4,12.1
		c-1.4,1.3-2.9,0.4-4,0.1c-9.8-2.7-19.6-5.5-29.4-8.3c-4.2-1.2-8.3-2.6-12.4-4c-2.9-0.9-5.7-0.7-8.8-0.4c0.8,1.9,2.1,1.9,3.1,2.2
		c15.7,4.5,31.4,9,47.1,13.6c8.5,2.5,16.9,5.2,25.4,7.7c17.4,5.1,34.9,10.1,52.3,15.3c7.6,2.3,15.2,5,22.7,7.7
		c4.2,1.5,4.5,2.3,3.9,6.8c-0.3,2-0.4,4,0,6c0.4,2.3-0.6,3.8-2.9,4.5c-8.3,2.5-16.5,5.1-24.8,7.7c-2.3,0.7-4.1-0.2-5.7-2.1
		c-10.3-11.7-22.9-7.9-29.4-0.2c-4.5,5.4-4.8,5.2-10.6,1.5c-28.7-18.3-57.3-36.6-86-55c-7.4-4.8-15.2-9-22.4-14.2
		c-1.7-1.2-3.6-2.3-5.9-1.2c0.3,2.1,2,2.5,3.1,3.2c19.3,12.3,38.6,24.5,57.9,36.8c11.7,7.4,23.4,14.8,35.1,22.2
		c6.3,4,12.6,8.2,18.9,12.3c1.1,0.7,2.3,1.4,3.3,2.3c3.5,3.1,3.1,6.6-0.9,8.8c-1.6,0.9-3.3,1.5-5.1,2.1
		c-31.8,11.5-63.7,23-95.5,34.5c-20.6,7.4-41.1,14.8-61.7,22.2c-4.9,1.7-9.8,3.2-14.6,5.1c-4,1.6-7.2,0.8-9.7-2.6
		c-3.2-4.3-6.3-8.6-9.4-13c-7.3-10.2-14.4-20.5-21.9-30.5c-9.9-13.2-19.4-26.6-29.1-39.9c-1.9-2.7-2-3.7,0.2-6.7
		c6.4-8.5,12.9-17,19.4-25.5c6.9-9,13.9-17.9,20.9-26.9c0.6-0.8,1.3-1.5,1.8-2.4c0.4-0.6,0.6-1.3,0.1-1.9c-0.5-0.8-1.3-0.9-2.2-0.8
		c-1.9,0.3-2.8,1.8-3.8,3c-4.1,5.2-8.2,10.5-12.3,15.8c-8.2,10.5-16.4,21-24.6,31.5c-3.3,4.2-4.8,4.2-8-0.2c-9.4-12.9-18.7-26-28-39
		c-2.1-3-4.2-6-6.2-9.1c-0.6-0.8-1.2-1.7-2.2-2c-1.1-0.4-2.4-0.7-3.3,0.1c-1.2,1.1-0.1,2.1,0.6,3c6.7,9.4,13.3,18.8,20.1,28.1
		c4.9,6.7,9.3,13.8,14.7,20.3c0.3,0.4,0.6,0.8,0.8,1.2c3.9,6,4.1,7.6-0.5,12.8c-4.1,4.6-7.5,9.8-11.3,14.6c-3.2,4.1-5,4.3-9,0.8
		c-6.6-5.8-13.1-11.8-19.7-17.7c-2.6-2.4-4-4.7-2.6-8.7c2.5-7.1,0.5-11.8-5.9-15.6c-3.7-2.2-4.7-4.8-4.2-9.1
		c0.9-8.4,1.1-16.9,1.5-25.4c0.1-1.6,0.2-3.6-1.7-4.3c-2.2-0.9-4.6-0.9-6.8,0.1c-1.4,0.7-1.3,2.2-1.4,3.5c-0.3,4.9,0.8,9.6,1.4,14.4
		c0.5,4.1,1.1,8.3,1.5,12.4c0.1,1.1,0.1,2.3-0.1,3.5c-0.6,5.4-3.8,6.9-8.2,3.7c-10.6-7.6-21-15.3-30.8-23.8
		c-5.2-4.5-10.6-8.6-16.3-12.4c-2.5-1.7-5-2.4-7.9-1.5c0.1,1.7,1.4,2,2.3,2.6c5.5,3.7,11.1,7.4,15.8,12.2c0.6,0.6,1.2,1.1,2,1.5
		c9.7,5.4,17.4,13.4,26.3,19.8c2.2,1.6,4.3,3.2,6.5,4.7c2,1.4,3.4,3.1,2.8,5.8c-0.9,4.4,0.3,8.2,3.6,11.4c2.5,2.4,3.6,5.6,3.2,9.1
		c-1.3,12.6-0.8,25.3-1.1,38c-0.1,5.4-2.5,8.9-7.4,12c-6.6,4.2-13.8,4.9-20.9,6.2c-14.3,2.7-28.7,4.6-42.9,7.5
		c-9.8,2-19.9,1.8-29.4,5.4c-0.3,0.1-0.6,0.2-1,0.2c-11.9,0.6-23.2,4.5-34.9,5.9c-14.7,1.7-29.2,5.1-43.9,6.8
		c-10.4,1.2-20.6,3.7-30.9,5.7c-3.6,0.7-7.2,1.5-10.9,1.3c-1.1-0.1-2.4,0-3.5,0.4c-10.4,3.1-21.1,4.8-31.8,6.5
		C49.4,74.5,40.7,76,32,77.7c-1.9,0.4-4,0.4-6,0.2c-3.4-0.3-5-3-3.1-5.6c4.1-5.5,6-12.3,11.3-17c2.4-2.1,2.9-5.5,4.7-8.2
		c8.6-12.5,17-25.1,25.3-37.8c2.9-4.4,5.1-9.3,8.5-13.5C74-5.9,75.2-7.8,77-9.1c0.6-0.5,1.4-1.1,1.6-1.9c1.7-6.1,5.8-10.8,9.1-16
		c9.2-14.5,18.2-29.1,28.4-43c2.1-2.8,4.3-5.5,5.8-8.7c0.6-1.3,1-2.6-0.5-3.5c-1.4-0.8-2.2,0.3-2.9,1.2c-0.8,1-1.7,2.1-2.3,3.2
		C108-64,99.1-50.7,90-37.6c-4.6,6.6-8.2,13.8-13,20.2C70.6-9.4,66.7-0.7,61.2,7C54.3,16.4,49,26.8,42.3,36.4
		c-4.8,6.8-9.5,13.7-13.9,20.8c-1.2,2-2.5,3.9-4.9,5.2c-0.6-5.4,1.2-10.1,3.1-14.3c2.5-5.5,4-11.3,6.3-16.8
		C37.2,20.5,41,9.5,45.3-1.4c4-10.2,7.4-20.7,11.1-31c2.3-6.3,4.7-12.5,7-18.7c4-11,8-21.9,11.8-33c0.5-1.5,2.3-4,0.1-4.8
		c-2.3-0.8-2.2,2.3-2.8,3.8c-3.6,9.3-7.2,18.7-10.6,28c-2.8,7.5-5.4,15.1-8.1,22.6c-3.6,9.9-7.1,19.8-10.9,29.6
		C38.7,6,34,16.7,30.7,27.9c-0.2,0.8-0.4,1.7-0.8,2.3C26,35.4,26,41.8,23.6,47.4c-2.5,5.8-3.8,12.1-6.1,17.9
		C16.8,67,16,68.6,15,70.2c-0.9,1.4-2.2,2-3.9,1.5H11c-3.8,2.1-8,2.8-12.5,2.8c-0.1,0-0.2,0-0.3,0c-2.8,2.9-6.8,4.2-11.4,3.5
		c-1.8-0.3-3.6-0.6-5.4-0.9c-1.8-0.3-3.2-1.2-4.2-2.7c-0.5,0.1-1.1,0.1-1.7,0.1c-0.8,0-1.5-0.1-2.1-0.2c-0.6,0.1-1.3,0.2-2,0.2
		c-1.3,0-2.4-0.2-3.5-0.5c-1.3,0.7-2.6,0.9-4.3,0.6c-9.7-1.5-19.4-3.1-29.2-3.9c-8.3-0.7-16.6-1.9-24.7-3.5c-10-2-20.2-2-30.1-3.9v4
		c1.8,0.3,3.6,0.8,5.4,0.9c11,0.2,21.9,2.2,32.7,3.7c10.4,1.4,20.8,3,31.2,4.4c11.5,1.5,23.1,2.9,34.7,4.4c1.3,0.2,2.6,0.6,3.8,1.2
		C-9.9,83-9.1,84.8-9.6,87.9z M354.2,3.8c-5,6.7-10.5,12.9-15.2,19.7c-1.3,1.9-3.2,3.4-4.8,5.1c-1.2,1.3-2.6,1.3-4,0.2
		c-2-1.5-4-3.1-6.4-3.8c-3.8-1.2-4.8-3.7-4.9-7.6c-0.2-8,1.1-15.9,1.2-24.6c-0.9-4.8,0.9-10.2,0.9-15.7c0-2-0.1-4.1,2.4-5
		s4.8-1.3,7,0.8c1.8,1.7,3.8,3.2,5.5,5c5.6,5.7,11.5,11.1,17.5,16.3C357.6-2.1,357.6-0.9,354.2,3.8z M462.5,75.1c-2-2-3.5-4.4-5-6.9
		c-1.3-2.2-0.9-3.1,1.5-4.3c0.6-0.3,1.3-0.4,1.9-0.7c18.4-6.5,36.7-13,55.1-19.6c22.7-8.2,45.4-16.5,68.1-24.8
		c0.6-0.2,1.2-0.5,1.9,0.1c0.2,1.3-0.9,1.6-1.8,2c-1.4,0.6-2.9,0.8-4.2,1.6c-11.8,7-24.7,11.7-36.8,18
		c-14.5,7.5-29.4,14.2-44.1,21.3c-10.1,4.8-20.1,9.7-30.2,14.5C465.5,78.1,465.2,77.9,462.5,75.1z M443,71.1
		c0.2-0.6,0.3-1.1,0.6-1.4c1.6-2,7-2.5,8.6-0.6c2.4,2.8,4.6,5.7,6.5,8.8c1.4,2.2-0.1,4.3-2.8,4.3c-1.4,0-2.7-0.6-3.6-1.5
		c-2.8-2.6-5.5-5.3-8.3-8C443.6,72.3,443.3,71.6,443,71.1z M394.9,27.6c-2.4-2.3-4.8-4.6-7.3-6.8c-6.8-6.1-13.4-12.4-20.1-18.7
		c-1.9-1.8-2.8-3.6-1-6.1c4.6-6.1,9.1-12.4,14.2-18c3-3.2,4.1-3.1,6.6,0.4c5.4,7.4,10.7,14.9,16,22.3c10.7,14.8,21.5,29.7,32.2,44.5
		c3.2,4.5,6.4,8.9,9.6,13.4c0.7,1,2,2.4,0.3,3.4c-2.3,1.3-4.8,2.1-6.8,3c-2.5-0.1-4-1.1-5.4-2.4C420.4,51,407.6,39.3,394.9,27.6z
		 M326.5,64.1c-0.2-0.6-0.3-1.3-0.3-1.5c-0.2-3.2,1.6-4.8,3.3-6.3c4-3.6,5.6-8.1,5.5-13.4c0-1.2,0.1-2.3,0-3.5
		c-0.2-2.8,0.7-5.1,2.4-7.4c5.1-6.5,10.1-13.2,15.2-19.8c1.9-2.5,3.9-5,6.1-7.2c2.6-2.7,3.5-2.6,6.3-0.2c2.4,2.1,4.5,4.5,6.9,6.5
		c10.3,8.5,19.6,18,29.5,26.9c8.6,7.6,16.9,15.6,25.3,23.4c1.1,1,2.2,2,3.2,3.1c2.2,2.5,2,3.7-1.2,5.2c-0.8,0.3-1.6,0.6-2.4,0.8
		c-3.9,1.4-7.8,2.8-11.7,4.2c-18,6.5-36.1,12.9-54.1,19.4c-4,1.4-7.3,1.2-10.4-2.1c-3.4-3.6-7.8-5.8-12.9-5.8
		c-3.3,0-4.7-1.7-5.7-4.6C329.6,76,328.3,70,326.5,64.1z M325.4,88.7c-2.2,1.8-4.6,3.6-5.6,6.3c-1.7,5.2-5.3,6.3-10.4,6.5
		c-16.3,0.4-32.6-0.8-48.9-0.4c-9.6,0.3-19.3-1.5-28.9-1.4c-14.7,0-29.2-2.2-43.9-1.4c-7.6,0.4-15.2-1.2-22.9-0.1
		c-3.4,0.5-6.9-0.7-10.4-0.8c-10.8-0.4-21.6,0-32.5-0.8c-11.8-0.8-23.6-0.2-35.5-1.1c-4.6-0.4-8.6-1-11.8-5.2
		c-3.7-4.9-9.6-3.8-12.7,1.8c-0.9,1.6-1.9,3.2-3.7,2.8c-5.1-1.1-10,0.3-14.9,0.5c-4.4-0.4-8.7-0.8-13-1.1c-1.4-0.1-2.6-0.6-3.3-2
		c-1.8-3.6-0.2-8.3,3.4-10.1c1.3-0.7,2.8-1.4,4.2-1.5c4.2-0.3,8.2-1.6,12.3-2.2c19.4-3.2,38.8-6.1,58.1-10.1
		c14.5-3,29.4-3.4,43.9-6.8c9.2-2.2,18.6-4.1,28.1-4.8c2.5-0.2,5.2-0.1,7.4-1c6.7-2.7,14-2.3,21-4.2c9-2.4,18.3-3.5,27.5-5.2
		c20-3.6,40-7.2,60.1-10.8c4.1-0.7,6.1,0.5,5.3,5c-0.8,4.4,0.1,8.7,3,12.3c4.1,5.2,9.1,8.8,15.9,9.3c3,0.2,4.4,1.8,5.2,4.5
		c1.6,5.6,3.2,11.2,4.9,16.8C327.8,85.6,327.1,87.3,325.4,88.7z M-6.4,100.7c7.9,8.4,19.9,9,28.1,1c3.3-3.2,6.8-4.6,11.2-4.4
		c7.3,0.4,14.6,0.8,21.9,1.6c3.1,0.3,6.5-0.3,9.4,1.1c3.6,1.6,7.1,1.5,10.7,0.6c2.4-0.5,4.8-1.2,7.4-1c14,0.8,27.9,1.8,41.9,1.8
		c9.7,0,19.3,0,29,0.6c8.2,0.6,16.6,1.2,24.9,0.4c6-0.6,11.9,1.1,17.9,1.1c11.8,0.1,23.6-0.1,35.5,0.6c10.9,0.6,21.9,2,29.4,1.4
		c16.7-0.5,29.8,1.4,43,0.9c2.7-0.1,5.3,0,8,0c2.5,0,4.5,0.7,5.3,3.5c0.7,2.3,2.3,4.1,3.7,5.9c2.4,2.9,2.3,5.6,0.4,8.7
		c-2.8,4.3-5.4,8.8-8.2,13.2c-1.5,2.4-3.2,4.7-4.9,7c-1.6,2.2-3.8,3.1-6.6,2.8c-9.3-1-16.2,2.4-20.5,11c-1.1,2.2-2.8,3.8-5.4,4
		c-9.6,0.7-19.2,2-28.9,2c-15.5-0.1-31,0.5-46.5,1.4c-9.5,0.6-19,0.7-28.5,0.7c-2.8,0-5.8-1.1-8.4-0.4c-5.1,1.4-10.2,1.1-15.3,1.7
		c-9.3,1.1-18.6,0.8-28,0.6c-4.4-0.1-9,0.4-13.3,1s-8.6,1-12.9,1.1c-7,0.1-14-0.3-21,0.4c-8,0.8-15.9,2-23.9,1.6
		c-11.4-0.5-22.6,1.5-34,1.1c-0.5,0-1,0.1-1.5,0.1c-9.1,0.6-18.1,2.7-27.2,0.3c-0.9-0.2-2,0-3,0.3c-6.8,2-13.9,1.3-20.7,1.9
		c-10.4,0.8-20.9,1.7-31.4,1.4c-5.7-0.1-11.3-0.3-17,0.7c-3.5,0.6-6.5-0.4-8.7-3.6c-5.5-7.8-11.1-15.4-16.7-23.1
		c-0.5-0.7-0.9-1.4-1.2-2.2c-1.5-3.1-1.2-4.1,1.8-5.5c4.7-2.2,8.9-3.4,13.9,0.3c5.1,3.8,9.6,2.6,14.3-1.7c2.8-2.6,4-5.8,3.4-9.5
		c-0.5-3.2,0.8-5.1,3.5-6.3c2.1-1,4.2-2.1,6.3-3.1c17.7-7.8,34.9-16.7,52.4-24.8C-10.7,96.2-10.8,96-6.4,100.7z"/>
</g>
<g class="st2">
	
		<ellipse transform="matrix(0.4171 -0.9089 0.9089 0.4171 -375.0453 635.0697)" class="st3" cx="307.6" cy="609.9" rx="16.4" ry="16.4"/>
	
		<ellipse transform="matrix(0.4171 -0.9089 0.9089 0.4171 -432.224 611.3877)" class="st3" cx="260.5" cy="642.7" rx="15.8" ry="15.8"/>
	
		<ellipse transform="matrix(0.4171 -0.9089 0.9089 0.4171 -577.7315 360.1136)" class="st3" cx="-8.1" cy="630.5" rx="14.3" ry="14.3"/>
	
		<ellipse transform="matrix(0.4171 -0.9089 0.9089 0.4171 -610.8459 300.6143)" class="st3" cx="-71.1" cy="626.5" rx="14.5" ry="14.5"/>
	
		<ellipse transform="matrix(0.4171 -0.9089 0.9089 0.4171 -492.1085 638.5421)" class="st3" cx="251.8" cy="702.9" rx="17.5" ry="17.5"/>
	<ellipse transform="matrix(0.4171 -0.9089 0.9089 0.4171 -562.5 645.5435)" class="st3" cx="222" cy="761.3" rx="8.6" ry="8.6"/>
	
		<ellipse transform="matrix(0.4171 -0.9089 0.9089 0.4171 -401.1264 875.4197)" class="st3" cx="481.9" cy="750.4" rx="20.6" ry="20.6"/>
	
		<ellipse transform="matrix(0.4171 -0.9089 0.9089 0.4171 -337.122 984.3734)" class="st3" cx="598.9" cy="755" rx="13.6" ry="13.6"/>
	<polyline class="st4" points="573.7,803.5 570.4,752.6 599.9,751.8 589.1,713.2 300.2,606.5 473.2,754.9 211.2,786 245,701.4 
		490,743.6 258.5,641.7 -99.2,661.3 -81.1,622 33.7,721.4 59.4,711.5 	"/>
	<line class="st4" x1="262.1" y1="638.7" x2="-71.1" y2="626.8"/>
	<polyline class="st4" points="245,701.4 112.2,774.4 -8.3,630.9 168.3,617.8 221.6,759.9 280.1,863.4 488.5,753.4 580.9,810.1 
		599.9,751.8 480.4,743.3 	"/>
</g>
<g class="st5">
	
		<ellipse transform="matrix(0.2222 -0.975 0.975 0.2222 956.1441 1070.832)" class="st6" cx="1149.2" cy="-63.9" rx="10.1" ry="10.1"/>
	<ellipse transform="matrix(0.2222 -0.975 0.975 0.2222 912.2415 1067.2123)" class="st6" cx="1125" cy="-38.2" rx="9.7" ry="9.7"/>
	<ellipse transform="matrix(0.2222 -0.975 0.975 0.2222 759.0433 928.2346)" class="st6" cx="961.3" cy="-11.6" rx="8.8" ry="8.8"/>
	<ellipse transform="matrix(0.2222 -0.975 0.975 0.2222 723.6773 895.1231)" class="st6" cx="922.9" cy="-6" rx="8.9" ry="8.9"/>
	
		<ellipse transform="matrix(0.2222 -0.975 0.975 0.2222 877.5056 1098.6091)" class="st6" cx="1127.3" cy="-0.7" rx="10.8" ry="10.8"/>
	
		<ellipse transform="matrix(0.2222 -0.975 0.975 0.2222 831.2499 1118.6195)" class="st6" cx="1116.7" cy="38.3" rx="5.3" ry="5.3"/>
	
		<ellipse transform="matrix(0.2222 -0.975 0.975 0.2222 990.5648 1239.5358)" class="st6" cx="1272.2" cy="-1.1" rx="12.7" ry="12.7"/>
	
		<ellipse transform="matrix(0.2222 -0.975 0.975 0.2222 1057.5947 1299.5825)" class="st6" cx="1343.3" cy="-13.1" rx="8.4" ry="8.4"/>
	<polyline class="st7" points="1012.3,28.8 998,38 916.2,-7.5 910.2,18.5 1123.6,-38.4 1276.2,-6.2 1123,-0.7 1113.3,54.6 
		1267.5,2.7 1144.3,-65 1332.1,-37 1343.5,-15.1 1325.8,-10.9 1334.2,19.4 	"/>
	<line class="st7" x1="922.8" y1="-5.9" x2="1125.4" y2="-40.7"/>
	<polyline class="st7" points="1270.3,-5.2 1343.5,-15.1 1339.4,22.4 1276.5,-0.1 1164.6,92.6 1116.3,37.5 1066.2,-41.5 
		961.2,-11.3 1052.1,60.1 1123,-0.7 	"/>
</g>
<g>
	<g class="st5">
		
			<ellipse transform="matrix(0.9999 -1.344413e-02 1.344413e-02 0.9999 -1.8293 6.9349)" class="st6" cx="514.9" cy="139.5" rx="12.5" ry="12.5"/>
		
			<ellipse transform="matrix(0.9999 -1.344413e-02 1.344413e-02 0.9999 -1.3183 7.2215)" class="st6" cx="536.5" cy="101.7" rx="12" ry="12"/>
		<path class="st6" d="M723.3,11.7c6.8-0.8,12.6,4.9,12.1,11.7c-0.4,5.1-4.5,9.2-9.5,9.8c-6.8,0.8-12.6-4.9-12.1-11.7
			C714.2,16.5,718.3,12.3,723.3,11.7z"/>
		
			<ellipse transform="matrix(0.9999 -1.344413e-02 1.344413e-02 0.9999 6.995464e-03 10.3394)" class="st6" cx="769" cy="4.6" rx="11.1" ry="11.1"/>
		<path class="st6" d="M513,48c13.9-10.9,30,4.5,20,18.7c-0.2,0.3-0.5,0.5-0.7,0.8C518.3,77.8,502.5,62.2,513,48z"/>
		
			<ellipse transform="matrix(0.9999 -1.344413e-02 1.344413e-02 0.9999 -5.743199e-02 7.0476)" class="st6" cx="524.2" cy="7.8" rx="6.6" ry="6.6"/>
		
			<ellipse transform="matrix(0.9999 -1.344413e-02 1.344413e-02 0.9999 -1.3125 4.7087)" class="st6" cx="349.6" cy="100" rx="15.7" ry="15.7"/>
		
			<ellipse transform="matrix(0.9999 -1.344413e-02 1.344413e-02 0.9999 -1.804 3.5988)" class="st6" cx="266.8" cy="136" rx="10.3" ry="10.3"/>
		<polyline class="st8" points="-16.8,70.8 268.3,137.5 268.3,137.5 288.2,160.4 521.1,139.4 379.2,57.7 548.7,-48.9 528,56.4 
			346.3,107.3 538.2,101.7 777,-28.3 777.4,4.5 666.3,-26.2 524.2,135 		"/>
		<path class="st8" d="M769,4.5"/>
		<path class="st8" d="M536.7,104.9"/>
		<polyline class="st8" points="528,56.4 595.2,-36.9 724.6,89.7 607.8,88.7 525,8.7 403.2,69.5 310.1,1.2 277.1,89.8 268.1,132.8 
			225.3,27.2 		"/>
	</g>
	<path class="st9" d="M157.9-16.2c5.6-0.6,10.2,4.7,8.1,10.5c-0.7,2-2.2,3.5-4.1,4.2c-5.7,2.2-11.2-2.2-10.7-7.8
		C151.4-12.9,154.3-15.8,157.9-16.2z"/>
	
		<ellipse transform="matrix(2.661264e-03 -1 1 2.661264e-03 506.8123 814.7113)" class="st9" cx="661.8" cy="153.3" rx="5.5" ry="5.5"/>
	<path class="st9" d="M216.9,16.6c7-5.5,15.2,2.3,10.1,9.5c-0.1,0.1-0.2,0.3-0.4,0.4C219.6,31.7,211.6,23.8,216.9,16.6z"/>
	
		<ellipse transform="matrix(0.9999 -1.344413e-02 1.344413e-02 0.9999 -1.529 11.0241)" class="st9" cx="819.2" cy="119.2" rx="8.1" ry="8.1"/>
	<path class="st10" d="M272.4,143.2"/>
	<path class="st10" d="M160.7-2"/>
	<line class="st11" x1="-22.5" y1="154.8" x2="216.3" y2="24.8"/>
	<polyline class="st11" points="93.1,30.9 72.4,136.2 424.3,-4.7 	"/>
	<polyline class="st12" points="379.4,170.3 498.8,241.4 647.5,89.7 	"/>
	<line class="st13" x1="535.7" y1="61.4" x2="811.7" y2="118"/>
	<path class="st11" d="M648,152"/>
	<path class="st11" d="M470-22.2"/>
	<path class="st14" d="M470-22.2"/>
	<path class="st14" d="M405.3,69.2"/>
	
		<ellipse transform="matrix(0.9999 -1.344413e-02 1.344413e-02 0.9999 -0.3038 1.2821)" class="st9" cx="95.2" cy="23.2" rx="8.1" ry="8.1"/>
	
		<ellipse transform="matrix(0.9999 -1.344413e-02 1.344413e-02 0.9999 -2.1377 -0.3756)" class="st9" cx="-29" cy="158.8" rx="8.1" ry="8.1"/>
	
		<ellipse transform="matrix(0.9999 -1.344413e-02 1.344413e-02 0.9999 -0.9274 -0.3263)" class="st9" cx="-24.7" cy="68.8" rx="8.1" ry="8.1"/>
</g>
<g class="st5">
	
		<ellipse transform="matrix(0.9851 -0.1721 0.1721 0.9851 -105.487 41.9929)" class="st6" cx="189.4" cy="629.3" rx="10.2" ry="10.2"/>
	
		<ellipse transform="matrix(0.9851 -0.1721 0.1721 0.9851 -109.7984 46.3529)" class="st6" cx="212.4" cy="656.4" rx="9.8" ry="9.8"/>
	
		<ellipse transform="matrix(0.9851 -0.1721 0.1721 0.9851 -113.3961 74.9189)" class="st6" cx="375.4" cy="691.4" rx="8.8" ry="8.8"/>
	<ellipse transform="matrix(0.9851 -0.1721 0.1721 0.9851 -114.1335 81.6221)" class="st6" cx="413.6" cy="699" rx="9" ry="9"/>
	
		<ellipse transform="matrix(0.9851 -0.1721 0.1721 0.9851 -116.3136 46.1821)" class="st6" cx="208.2" cy="693.9" rx="10.8" ry="10.8"/>
	
		<ellipse transform="matrix(0.9851 -0.1721 0.1721 0.9851 -123.0145 48.2583)" class="st6" cx="216.8" cy="733.6" rx="5.3" ry="5.3"/>
	
		<ellipse transform="matrix(0.9851 -0.1721 0.1721 0.9851 -117.1341 21.0468)" class="st6" cx="62.8" cy="686" rx="12.8" ry="12.8"/>
	<ellipse transform="matrix(0.9851 -0.1721 0.1721 0.9851 -115.4909 8.6285)" class="st6" cx="-8" cy="670.3" rx="8.4" ry="8.4"/>
	<polyline class="st15" points="-0.5,703.4 9.5,673.4 -8.1,668.3 4.5,646.9 194.4,628.5 67.3,690.1 219.4,750 212.5,694 59.1,680.7 
		213.9,656.2 425.1,724.3 420.4,697.9 335.9,739.4 322.2,729.3 	"/>
	<line class="st15" x1="212.2" y1="653.8" x2="413.7" y2="699.1"/>
	<polyline class="st15" points="212.5,694 280.6,758.7 375.4,691.8 271.6,656.1 217.3,732.7 165.9,785.6 58.4,686.8 -5.8,706.2 
		-8.1,668.3 64.9,682 	"/>
</g>
<g>
	<g class="st5">
		
			<ellipse transform="matrix(0.1167 -0.9932 0.9932 0.1167 168.0122 1428.3319)" class="st6" cx="887" cy="619.7" rx="11.3" ry="11.3"/>
		
			<ellipse transform="matrix(0.1167 -0.9932 0.9932 0.1167 115.8911 1432.4355)" class="st6" cx="863.3" cy="651.1" rx="10.8" ry="10.8"/>
		<path class="st6" d="M685.5,709.6c-6.2-0.1-10.7-5.8-9.4-11.9c1-4.5,5.1-7.7,9.7-7.7c6.2,0.1,10.7,5.8,9.4,11.9
			C694.2,706.4,690.1,709.7,685.5,709.6z"/>
		
			<ellipse transform="matrix(0.1167 -0.9932 0.9932 0.1167 -137.1426 1266.9584)" class="st6" cx="643.7" cy="710.6" rx="10" ry="10"/>
		<path class="st6" d="M878,701.9c-13.7,8.1-26.3-7.6-15.7-19.1c0.2-0.2,0.5-0.4,0.7-0.6C876.8,674.5,889.1,690.4,878,701.9z"/>
		
			<ellipse transform="matrix(0.1167 -0.9932 0.9932 0.1167 31.0028 1507.9081)" class="st6" cx="863.3" cy="736.5" rx="5.9" ry="5.9"/>
		
			<ellipse transform="matrix(0.1167 -0.9932 0.9932 0.1167 240.1711 1619.0939)" class="st6" cx="1030.4" cy="674.5" rx="14.1" ry="14.1"/>
		
			<ellipse transform="matrix(0.1167 -0.9932 0.9932 0.1167 329.9186 1676.5314)" class="st6" cx="1107.5" cy="652.8" rx="9.3" ry="9.3"/>
		<polyline class="st16" points="1354.9,743.6 1107.5,650.5 1107.5,650.5 1092.4,627.7 881.4,619.1 998.9,708.9 834.7,784.4 
			865.6,692.6 1034.1,668.4 861.7,650.9 632.8,739.2 636.2,709.7 732.1,750.2 878.2,622.7 		"/>
		<path class="st16" d="M643.7,710.7"/>
		<path class="st16" d="M863.5,648.2"/>
		<polyline class="st16" points="865.6,692.6 794.4,768.2 693.5,639.7 797.9,654.3 862.7,735.6 978.8,695.5 1054.1,767.5 
			1107.4,692.5 1107.5,650.5 1135,753.6 		"/>
	</g>
	<path class="st9" d="M1191.6,776c-5.1-0.1-8.5-5.4-6-10.3c0.9-1.7,2.4-2.9,4.2-3.3c5.4-1.3,9.8,3.3,8.7,8.2
		C1197.7,773.7,1194.8,776,1191.6,776z"/>
	<ellipse transform="matrix(0.1327 -0.9912 0.9912 0.1327 81.692 1264.4032)" class="st9" cx="763.4" cy="585.5" rx="10" ry="10"/>
	<path class="st9" d="M1139.3,764.7c-6.9,4.1-13.3-3.8-7.9-9.7c0.1-0.1,0.2-0.2,0.4-0.3C1138.7,750.9,1144.9,758.9,1139.3,764.7z"/>
	
		<ellipse transform="matrix(0.1167 -0.9932 0.9932 0.1167 -57.2054 1139.9459)" class="st9" cx="612.3" cy="602.1" rx="7.3" ry="7.3"/>
	<path class="st17" d="M1104.6,644.9"/>
	<path class="st17" d="M1190.7,762.9"/>
	<line class="st18" x1="1369.8" y1="669.1" x2="1140.9" y2="757.4"/>
	<polyline class="st18" points="1251.8,766.5 1282.7,674.7 980,694.5 	"/>
	<polyline class="st19" points="1019.7,624.6 913.4,530.4 762.5,648.8 	"/>
	<line class="st20" x1="859.2" y1="687.2" x2="618.9" y2="604.1"/>
	<path class="st18" d="M769.4,592.9"/>
	<path class="st18" d="M908.3,769.8"/>
	<path class="st21" d="M908.3,769.8"/>
	<path class="st21" d="M976.9,695.6"/>
	
		<ellipse transform="matrix(0.1167 -0.9932 0.9932 0.1167 335.4118 1923.3052)" class="st9" cx="1249" cy="773.1" rx="7.3" ry="7.3"/>
	
		<ellipse transform="matrix(0.1167 -0.9932 0.9932 0.1167 553.7025 1955.2363)" class="st9" cx="1376.1" cy="666.3" rx="7.3" ry="7.3"/>
	
		<ellipse transform="matrix(0.1167 -0.9932 0.9932 0.1167 461.4851 2011.6417)" class="st9" cx="1361.7" cy="746.4" rx="7.3" ry="7.3"/>
</g>
<ellipse transform="matrix(0.9999 -1.344413e-02 1.344413e-02 0.9999 0.1313 5.7825)" class="st9" cx="430.2" cy="-6.9" rx="6.6" ry="6.6"/>
<ellipse transform="matrix(0.9999 -1.344413e-02 1.344413e-02 0.9999 -2.2107 5.0395)" class="st9" cx="373.7" cy="166.9" rx="6.6" ry="6.6"/>
</svg>
