<?xml version="1.0" encoding="utf-8"?>
<!-- Generator: Adobe Illustrator 21.0.0, SVG Export Plug-In . SVG Version: 6.00 Build 0)  -->
<svg version="1.1" id="Capa_1" xmlns="http://www.w3.org/2000/svg" xmlns:xlink="http://www.w3.org/1999/xlink" x="0px" y="0px"
	 viewBox="0 0 1366 768" style="enable-background:new 0 0 1366 768;" xml:space="preserve">
<style type="text/css">
	.st0{display:none;}
	.st1{display:inline;}
	.st2{display:none;opacity:0.6;}
	.st3{display:inline;fill:#9B0BFF;}
	.st4{display:inline;fill:none;stroke:#9B0BFF;stroke-width:3.4706;stroke-miterlimit:10;}
	.st5{opacity:0.2;}
	.st6{fill:#9B0BFF;}
	.st7{fill:none;stroke:#9B0BFF;stroke-width:2.1395;stroke-miterlimit:10;}
	.st8{fill:none;stroke:#9B0BFF;stroke-width:2.6341;stroke-miterlimit:10;}
	.st9{opacity:0.2;fill:#9B0BFF;}
	.st10{opacity:0.2;fill:none;stroke:#9B0BFF;stroke-width:1.9018;stroke-miterlimit:10;}
	.st11{opacity:0.2;fill:none;stroke:#9B0BFF;stroke-width:2.6341;stroke-miterlimit:10;}
	.st12{opacity:0.2;fill:none;stroke:#9B0BFF;stroke-width:2.3811;stroke-miterlimit:10;}
	.st13{opacity:0.2;fill:none;stroke:#9B0BFF;stroke-width:2.5078;stroke-miterlimit:10;}
	.st14{opacity:0.2;fill:none;stroke:#9B0BFF;stroke-width:2.557;stroke-miterlimit:10;}
	.st15{fill:none;stroke:#9B0BFF;stroke-width:2.1501;stroke-miterlimit:10;}
	.st16{fill:none;stroke:#9B0BFF;stroke-width:2.3778;stroke-miterlimit:10;}
	.st17{opacity:0.2;fill:none;stroke:#9B0BFF;stroke-width:1.7167;stroke-miterlimit:10;}
	.st18{opacity:0.2;fill:none;stroke:#9B0BFF;stroke-width:2.3778;stroke-miterlimit:10;}
	.st19{opacity:0.2;fill:none;stroke:#9B0BFF;stroke-width:2.1495;stroke-miterlimit:10;}
	.st20{opacity:0.2;fill:none;stroke:#9B0BFF;stroke-width:2.2638;stroke-miterlimit:10;}
	.st21{opacity:0.2;fill:none;stroke:#9B0BFF;stroke-width:2.3083;stroke-miterlimit:10;}
</style>
<g id="Capa_1_1_" class="st0">
	<g class="st1">
		<path d="M493.6,732.2c8,3.5,15.9,7.1,24,10.4c7.5,3.1,14.8,6.4,22.2,9.7c3.3,1.4,6.5,3.3,9.9,4.3c3.5,1,3.8,5.5,1,7.6
			c-3.8,2.9-7.6,5.9-11.3,8.8c-5.5,4.3-11.1,8.6-16.8,12.7c-2.4,1.7-4.6,3.7-6.9,5.6h3.4c1.6-1.4,3.4-2.6,5.2-3.9
			c2.3-1.7,4.4-3.7,6.7-5.4c6-4.5,11.9-9.1,17.9-13.7c0.3-0.2,0.5-0.4,0.8-0.6c2.7-1.9,3.3-1.8,5.1,1c1.9,3,4.3,5.3,8,5.9
			c3.3,0.5,8.3-1.6,10-4.5c0.4-0.7,0.8-1.4,1.4-1.9c0.7-0.6,1.5-0.8,2.5-0.5c4.9,1.6,9.7,3.6,14.5,5.5c2.4,1,2.7,1.3,2.2,3.7
			c-0.4,1.7,0,3.3,0.2,5c0.1,0.9,0.2,1.4,0.2,1.9c1.1,1.3,2.1,2.7,3.5,4.1c0.5,0.5,1,0.9,1.5,1.3c0.1,0.1,0.2,0.1,0.3,0.2
			c0.4,0.2,0.7,0.4,1.1,0.6c1.9,0.3,3.8,0.4,5.2,0.2c0.8-0.1,1.7-0.2,2.6-0.5c2.3-0.8,4.5-2.2,6.6-3.6c2.5-5.2,2.3-13.5-3.3-18.2
			c-2.7-2.2-5.5-3-8.9-2.2c-1.9,0.5-3.4,1.4-4.6,2.9c-1.7,2.3-3.7,2.5-6.3,1.5c-4.4-1.6-8.9-3.2-13.3-4.8c-2-0.7-2.9-1.8-2.9-4
			c0-3.2-0.8-6.2-2.8-8.8c-3.7-4.8-10.2-7-15.7-1.4c-0.5,0.5-0.9,0.9-1.4,1.4c-1.6,1.6-2,1.6-4,0.7c-0.5-0.2-1-0.5-1.5-0.8
			c-8.3-5.1-17-9.6-25.3-14.7c-5.2-3.2-10.6-6-15.8-9.1c-4.4-2.6-8.7-5.3-13.2-7.8c-10-5.7-19.9-11.6-29.9-17.3
			c-6-3.4-11.8-7-17.9-10.3c-1.2-0.6-2.4-1.1-3.4-2.1c-1.7-1.7-2.2-1.6-3.9,0.1c-1.1,1.1-1.9,2.5-3.1,3.6c-1.6,1.5-3.3,3-4.4,5
			c-0.8,1.4-3.6,2.2-4.9,1.4c-1.9-1.1-4-1.7-6-2.5c-2.9-1.2-5.9-2.4-8.8-3.7s-6-2.2-8.8-3.9c-1.5-0.9-3.2-1.8-4.9-2.4
			c-5.6-1.9-10.9-4.5-16.4-6.8c-1.9-0.8-2.7-2.1-2.5-4.1c0.2-2.6-0.5-5.1-1.6-7.4c-2-4.2-5.3-6.5-10.1-6.3c-0.6,0-1.1-0.1-1.7,0
			c-2.2,0.4-3.6-0.6-4.6-2.6c-2.7-5.2-5.4-10.4-7.9-15.6c-0.6-1.2-0.4-2.1,0.4-3.1c0.6-0.8,1.7-1.4,1.6-2.6
			c-0.1-1.7,0.5-3.2,0.9-4.7c0.4-1.6,0.3-3.1-0.4-4.7c-0.7-1.5-1.2-3.1-1.7-4.7c-0.4-1.3-1.2-2.3-2.5-2.7c-1.3-0.5-2.5-1.1-3.5-2.1
			c-2.5-2.6-7.7-1.7-9.8,0.6c-2,2.2-3.6,4.5-4.3,7.4c-0.3,1.4-0.8,2.7-2.5,2.9c-2.1,0.2-4.1,0.5-6.2,0.4c-4.5-0.2-9.1-0.5-13.6-0.9
			c-6.7-0.6-13.4-0.7-20.1-0.8c-4-0.1-7.9-1.2-11.9-0.8c-1.8,0.2-3.8-0.2-5.7-0.2c-3.4,0-6.7,0-10-0.7c-0.7-0.2-1.4-0.1-2.1,0
			c-2.5,0.4-4.9,0.3-7.3-0.5c-1.2-0.4-2.3-0.5-3.5-0.3c-1.3,0.1-2.7,0.2-4.1,0c-2.4-0.4-4.8-0.3-7.2-0.3c-1.3,0-2.5,0-3.7-0.7
			c-0.8-0.4-1.8-0.5-2.6-0.1c-1.4,0.7-2.8,0.3-4.2-0.1c-0.8-0.3-1.7-0.4-2.6-0.3c-3.2,0.4-6.5,0.5-9.5-0.2c-3.5-0.8-7-0.6-10.5-0.5
			c-3.8,0.2-7.5-0.3-11.2-0.5c-3.5-0.2-7-0.8-10.5-1c-7.3-0.4-14.7,0.1-22-0.6c-2.2-0.2-4.5,0-6.7-0.5c-2.7-0.5-5.4-0.8-8.1-0.2
			c-0.9,0.2-1.9,0.1-2.9-0.1c-1.5-0.3-3-0.4-4.5-0.3c-5,0.5-9.8-1.1-14.8-0.5c-0.1,0-0.2,0-0.2,0c-4.4-0.5-8.7-0.9-13.1-0.9
			c-0.8,0-1.6-0.1-2.4-0.2c-2.2-0.3-2.6-0.2-3.7,1.7c-1.6,3-3.6,5.7-5.4,8.5c-0.4,0.5-0.7,1.1-1,1.7c-1.1,2.5-2.6,4.8-4,7
			c-2.1,3.4-4.1,6.8-6.2,10.2c-1.4,2.2-3.8,4-3.9,6.9c-1.5,1.4-2,3.5-3.1,5.1c-2.7,3.9-5,8.1-7.5,12.2c-0.9,1.4-1.5,3-2.3,4.4
			c-2.8,4.8-5.7,9.6-8.6,14.3c-1.1,1.8-1.9,3.7-3.1,5.4c-1.3,1.8-1.3,1.8-3.3,1.4c-1.2-0.3-2.5-0.5-3.8-0.7c-3.2-0.5-5.9,1-7,4.1
			c-0.2,0.6-0.4,1.2-0.6,1.8c-0.1,0.5-0.2,1-0.8,1.1c-0.7,0.1-1-0.5-1.1-1.1c-0.2-1.2-0.7-1.9-2-2.3c-2.6-0.7-3.3-2-2.6-4.7
			c0.2-0.9,0.6-1.9,0.6-2.8c0-4.1,0.3-8.1,1-12.2c0.8-4.8,1.3-9.6,1.8-14.5c0.2-2.7-0.5-4.5-2.7-5.9c-0.6-0.4-1-0.3-1.5,0.1
			c-1.1,1-2.4,1.9-3.4,3c-2.1,2.6-4.8,4.7-7.1,7.1c-2,2.2-4.4,4.1-6.6,6.2c-3.2,3-6.8,5.6-9.5,9.1c-0.4,0.6-1,1-1.6,1.4
			c-3.1,2.1-5.8,4.7-8.5,7.3c-2.7,2.7-5.6,5.3-8.1,8.1c-0.8,0.9-1.8,1.6-3.1,1.4v3.8c1.2,0,2-0.8,2.8-1.6c3.7-3.6,7.4-7.3,11.6-10.3
			c0.6-0.5,1.2-1,1.7-1.7c3.6-4.2,7.6-8,11.7-11.7c1.9-1.7,3.5-3.7,5.7-5c0.9-0.5,1.4-1.7,2.3-2.4c3.5-3.3,7.1-6.5,10.4-9.9
			c0.5-0.5,1.1-1.1,1.9-0.7c0.8,0.4,0.7,1.2,0.8,1.9c0.3,4-0.6,7.8-1.1,11.7c-0.6,4.2-1.3,8.4-1.4,12.6c0,1.7-0.6,3.5-0.7,5.2
			c-0.2,1.7-1.1,2.7-2.8,3.2c-3.3,1-5.8,3-7.6,5.9c-0.8,1.2-1.4,2.5-1.7,4c-0.4,1.8-1.3,2.9-3.1,3.6c-4.8,2.2-9.9,3.7-15,4.8
			c-3.8,0.8-7.6,2-11.4,2.9c-1.4,0.4-2.8,0.7-4.3,0.6v2.9c3.1-0.7,6.3-0.5,9.5-0.9c3.6-0.5,7.3-0.7,10.9-1.1c3.3-0.4,6.7-0.4,10-1.1
			c1.8-0.4,3.7,0.4,5.2,1.4c2.6,1.7,5.1,3.6,7.8,5.1c1,0.6,1.2,1.4,0.6,2.4c-0.4,0.5-0.7,1.1-1,1.6c-0.6,0.9-0.8,1.8-0.3,2.7
			c0.7,1.4,0.4,2.7-0.5,3.8c-0.8,1.2-1.5,2.4-2,3.8c-0.6,1.6-1.2,1.6-3,1.7c-2.9,0.1-5.3-1.4-8-2.1c-2.3-0.7-4.6-1.5-6.5-3
			c-0.6-0.5-1.3-0.6-2-0.6c-3.5-0.2-6.6-1.7-9.7-3c-1.6-0.6-3.3-1.2-5-1.6c-1.4-0.4-2.7-0.9-3.7-2c-0.6-0.7-1.4-1.1-2.3-1.1v3.4
			c1.9-0.1,3.4,0.9,4.8,1.8c0.8,0.6,1.6,1,2.6,1c1.9,0.1,3.5,1,5,2.1c0.7,0.6,1.4,1.1,2.3,1.2c4.9,0.5,9.4,2.3,14,4.1
			c1.5,0.6,2.9,1.3,4.5,1.7c0.7,0.2,1.3,0.6,1.9,0.9c1,0.6,1.2,1.4,0.7,2.4c-0.9,1.8-2,3.4-3.2,5.1c-0.4,0.6-0.9,1.2-1.1,1.8
			c-0.8,2.7-2.7,4.7-4.1,7c-2,3.6-4.6,6.8-6.5,10.6c-0.1,0.1-0.1,0.2-0.2,0.3c0.6,0.4,1.3,0.9,1.9,1.4c1-1.5,2-2.9,3-4.3
			c4.5-6.4,8.7-13,12.5-19.9c0-0.1,0.1-0.1,0.1-0.2c0.5-0.7,0.9-1.8,1.9-1.5c1.2,0.4,1,1.5,0.8,2.4c-0.8,4.7-1.8,9.4-2.4,14.2
			c-0.9,7.1-2.2,14.2-3.2,21.3c-0.1,0.6-0.2,1.1-0.4,1.6h3.4c1-3.3,1.9-6.8,3.2-10c2.1-5.2,4.1-10.4,6-15.7c1-2.7,1.3-5.6,2.3-8.3
			c0.9-2.5,1.4-2.8,3.9-2.1c0.6,0.2,1.2,0.4,1.8,0.7c3.6,2.1,7.5,3.3,11.5,4.5c3.5,1,7,2.2,10.2,4c0.8,0.5,1.8,0.7,2.7,0.9
			c3.2,0.7,6.3,1.7,9.4,3c2.8,1.2,5.7,2.1,8.6,3.1c5,1.8,10.1,3.5,15.1,5.4c3.1,1.2,6.2,2.5,9.5,3.2c1.7,0.3,2.8,1.5,3,3.3
			c0.2,1.1,0.6,2.2,1,3.2c1.3,2.7,3.4,3.9,6.3,3.9c2.9-0.1,4.7-1.6,5.8-4.2c0.3-0.7,0.5-1.3,0.7-2c0.1-0.3,0.2-0.5,0.3-0.8
			c0-0.8-0.1-1.6-0.3-2.3c-0.4-1.4-2.4-5.5-4.4-7.2c-0.4,0-0.8,0-1.3-0.1c-0.2,0-0.4,0-0.6-0.1c-0.2,0-0.3,0-0.5,0
			c-2.3,0-4.2,1.1-5.7,2.9c-1.7,2-2.5,2.4-5,1.4c-4.7-1.9-9.4-3.4-14.1-5.2c-3.3-1.3-6.6-2.9-10.1-3.6c-1.2-0.2-2.3-1.1-3.5-1.5
			c-5-1.8-10.1-3.6-15.1-5.4c-4.7-1.7-9.3-3.4-13.9-5.3c-3.2-1.3-6.5-2.1-9.6-3.7c-2.4-1.3-3-2.2-2.1-4.8c1-3,1.7-6.2,4.1-8.6
			c0.7-0.7,0.7-1.6,0.4-2.5c-0.3-1.1,0-2.2,0.3-3.3c1.5-5.2,3.5-10.3,5-15.5c0.7-2.6,3-3.7,5.1-4.7c2-0.9,4.2-1.4,6.5-1.3
			c1.7,0.1,3-0.9,4.6-1.1c1.3-0.2,2.6-0.5,4-0.3s2.7-0.2,4-0.6c2.9-0.8,5.8-1.3,8.8-1.2c0.7,0,1.5,0.1,2.1-0.3
			c1.8-1,3.9-0.8,5.8-1.2c1.6-0.4,3.2-0.7,4.9-0.9c0.8-1.1,2.1-1.8,3.8-1.8c1,0,1.9,0.3,2.6,0.7c2.2-0.5,4.4-0.8,6.6-1.2
			c0.2,0,0.5,0,0.7,0c3.7-1.5,7.9-1,11.7-2.2c2.5-0.8,5.1-0.7,7.6-0.9c1-0.1,1.9-0.2,2.8-0.5c2.1-0.9,4.4-0.6,6.6-1
			c0.2,0,0.3,0,0.5,0c0.5-0.1,1-0.1,1.5-0.2c1.8-0.3,3.6-0.7,5.4-1l0,0c0.4-0.1,0.9-0.1,1.3-0.2c0.2,0,0.4,0,0.6,0
			c0.8-0.3,1.6-0.5,2.5-0.8c3.8-1.1,6.3,0.3,8.4,3.3c0.8,1.1,1.2,2.3,1.5,3.7c1.6,6.6,0.6,13.4,0.9,20.1c0.2,6-0.4,12,0.4,18
			c0.1,0.7-0.1,1.4-0.2,2.1c-0.3,1.7-0.4,3.4-0.1,5c0.2,1.5,0.4,2.8-0.3,4.2c-0.3,0.6-0.2,1.2-0.2,1.9c0.6,6,0.9,11.9,0.9,17.9
			c0,0.7,0,1.4-0.2,2.1c0.8,0.4,1.7,0.8,2.5,1.3c0.1-3,0.4-6,0.6-9.1c0.1-1,0.1-1.9-0.1-2.9c-0.8-3.8-0.5-7.6-0.5-11.5
			c0-2.3,0.1-2.3,2.3-2.9c2.3-0.6,3.6-2.6,3.2-4.9c-0.1-0.7-0.3-1.4-0.5-2.1c-0.4-1.3-1.2-1.9-2.6-2.1c-2.2-0.3-2-0.4-2.4-2.4
			c-0.7-3.4,0-6.7,0-10c0-7.8,0-15.5,0-23.3c0-0.8,0-1.6,0.1-2.4c0.2-1.1,1.3-2,2.4-2c1.1,0,1.9,0.5,2.2,1.5c1,3.6,2.7,7,3,10.8
			c0,0.6,0,1.4,0.3,1.9c1.4,2,1.6,4.3,2.4,6.5c0,0.1,0.1,0.1,0.1,0.2c0.8,6.6,4.6,12.4,5.4,19c0.2,1.5,0.8,2.9,1.4,4.3
			c0.9,2,1.6,4,1.9,6.2c0.3,1.8,1.2,3.3,1.7,5c2.1,6.6,4.3,13.2,6.2,19.9c0.9,3.4,1.7,6.8,3,10.1c0.5,1.3,0.9,2.7,1,4.2h2.4
			c-1.8-6.9-4.5-13.5-6.2-20.4c-1.3-5.1-3.6-9.9-4.5-15.2c-0.3-1.7-1.2-3.3-1.8-4.9c-0.5-1.4-0.8-2.9-1.1-4.4
			c-0.5-2.3-1.4-4.6-2.2-6.8c-1.8-4.6-2.8-9.5-4.3-14.2c-0.6-1.9-1.3-3.8-1.8-5.7c-0.7-2.8-2.1-5.5-2.1-8.5c0-1.7-0.8-3.2-1.6-4.7
			c0.2-0.1,0.3-0.2,0.5-0.2c1.1,1.6,2.2,3.1,3.3,4.7c0.4,0.6,0.8,1.2,1.1,1.9c2.7,5.9,6.3,11.3,9.3,17c1.3,2.5,2.4,5.1,3.7,7.5
			c1.7,2.9,3,6,4.8,8.8c2.2,3.4,4.2,7,5.6,10.9c0.7,2.1,1.8,4,3.2,5.9c2.2,2.9,3.8,6.3,5.4,9.6c2.8,5.6,5.8,11,8.9,16.4
			c0.4,0.8,0.9,1.5,1,2.4h2.4c-0.2-0.5-0.3-0.9-0.5-1.4c-2.2-4.2-4.3-8.4-6.6-12.5s-4.6-8.3-6.6-12.5c-1.1-2.3-2-4.4-3.6-6.5
			s-2.8-4.5-3.8-6.9c-1.9-5-5-9.4-7.4-14.2s-5.5-9.4-7.9-14.2c-1.2-2.3-3.1-4.3-3.7-7c-0.3-1.3-0.9-2.4-1.7-3.4
			c-1.3-1.7-2.5-3.3-3.3-5.3c-0.9-2.2-1.5-4.5-3.2-6.3c-1.3-1.4-0.2-4,1.6-4c1.7-0.1,3.5-0.2,5.2,0.3c3.3,1,6.6,2.1,10,2.5
			c3.5,0.4,7,1,10.4,1.9c2.3,0.6,4.6,1.3,7,1.5c1.3,0.1,2.5,0.5,3.7,1c1.8,0.7,3.7,1.3,5.8,1.4c2,0,4.2-0.1,6.1,0.9
			c1.3,0.7,2.7,0.9,4.1,1c3.4,0.3,6.7,1.4,10,2.2c3.7,0.8,7.5,1.3,11.2,2.2c4.3,1,8.9,0.9,13,2.9c0.4,0.2,1,0.3,1.4,0.2
			c1.6-0.3,3.2,0.1,4.7,0.4c7.2,1.4,14.1,4,21.5,4.4c0.6,0,1.1,0.2,1.6,0.4c3.8,1.1,7.5,2.6,11.6,2.4c1-0.1,2,0.4,3,0.7
			c1.2,0.3,2.3,0.7,3.5,1c11,2.3,21.9,4.6,32.9,6.9c0.8,0.2,1.6,0.4,2.2,1c1.2,1.3,2.8,2.2,4.3,3.1c1.3,0.8,2,1.9,2.3,3.5
			c0.6,2.9,0.7,5.9,0.8,8.8c0.3,7.7-0.1,15.3,0.6,23c0.3,2.8-0.6,5.1-2.3,7.1c-2.1,2.4-2.4,5.2-1.9,8.1c0.4,2-0.3,3.2-1.8,4.3
			c-0.4,0.3-0.8,0.7-1.2,1.1h14.4c1.2-1.6,2.6-3,3.1-5.3c0.6-2.5,0.3-4.8-0.6-7c-0.6-1.4-0.4-2.4,0.5-3.5c2.4-2.7,4.7-5.4,7.1-8.1
			c2-2.2,4-4.4,6-6.5c0.5-0.5,1-1,1.6-1.5c1.3-1,2.1-1,3,0.4c1.2,1.8,2.4,3.6,3.5,5.5c1.2,2.1,2.6,4,3.9,6c0.5,0.7,0.9,1.5,1.4,2.2
			c1.3,2,1.3,3.9,0.1,6.1c-2.1,4-4.9,7.5-6.6,11.7h3.8c1.4-3.7,3.6-6.9,5.8-10.1c0.5-0.7,1.1-0.6,1.6-0.1c0.6,0.7,1.3,1.4,1.8,2.2
			c1.6,2.6,3.7,4.9,4.8,7.9h3.8c-0.5-1.7-1.9-2.7-2.8-4.2c-1.8-3.1-3.5-6.3-5.5-9.3c-1.3-1.9-1.1-2.9,0.3-4.8c1.7-2.4,3.2-5,4.7-7.5
			c1.7-2.9,3.3-5.9,5.1-8.7c1.8-2.8,3.5-5.7,5.2-8.6c2.7-4.7,5.7-9.2,8.4-13.9c3.3-5.7,6.5-11.6,10-17.2c1.4-2.3,2.7-4.5,4.5-6.5
			c1.1-1.3,1.5-1.5,3.1-0.8c3.4,1.5,6.9,2.6,10.2,4.1c5.8,2.7,11.8,4.9,17.6,7.6C477.6,725.4,485.7,728.8,493.6,732.2z M24.8,721
			c-0.2,0.1-0.5,0.2-0.7,0.2c-2.5,0.2-5.2-0.3-7.4,1c-0.5-0.2-0.9-0.2-1.3-0.4c-0.2-0.1-0.3-0.3-0.4-0.5c-0.1-0.4,0.2-0.6,0.5-0.7
			c0.3-0.1,0.6-0.2,0.9-0.2c1.7,0,3.3-0.7,4.8-1.4c1-0.5,2.1-0.6,3.3-0.5c0.7,0.1,1.3,0.3,1.4,1.1C25.9,720.3,25.4,720.7,24.8,721z
			 M40,762.2c-2,4.2-3,8.7-5,12.9c-0.2,0.4-0.3,0.9-0.9,1.2c-0.5-0.7-0.5-1.6-0.3-2.3c1.5-6,1.3-12.3,2.6-18.4
			c0.1-0.6,0.2-1.3,0.5-1.8c0.4-0.9,1.1-1.4,2.1-1c1,0.3,1.1,1.2,0.7,2c-0.8,1.7-0.6,3.2,0.3,4.8C40.5,760.4,40.4,761.4,40,762.2z
			 M46.2,743.4c-0.7,2.5-1.6,4.8-2.7,7.1c-0.2,0.4-0.6,0.7-0.9,0.6c-1.3-0.6-2.8-0.4-4.1-1.1c-1.2-0.7-1.5-1.8-1.4-3.1
			c0.2-2,1.3-3.7,2.1-5.5c0.3-0.8,1.1-0.8,1.9-0.6c1.4,0.4,2.9,0.8,4.4,1.2C46.1,742.2,46.4,742.7,46.2,743.4z M53.3,722.2
			c-0.7,1.9-0.9,4.1-1.9,6c-0.6,1.2-1.3,1.2-2.2,0.2c-1.1-1.3-1.2-2.3-0.3-3.7c0.8-1.2,1.7-2.3,2.6-3.4c0.3-0.4,0.7-0.8,1.2-0.6
			C53.4,720.8,53.4,721.4,53.3,722.2z M154.9,695.3c-2,0.1-4,0.4-5.9,1c-1.8,0.5-3.8,0.8-5.7,1c-0.6,0.1-1.3,0.1-1.9,0.2
			c-7.6,1.3-15.2,2.7-22.9,3.9c-3.9,0.6-7.7,1.5-11.6,1.8c-3.8,0.3-7.5,1.5-11.4,1.2c-0.6,0-1.3,0-1.9,0.2c-3,1.2-6.3,1.2-9.4,1.7
			c-0.7,0.1-1.4,0.3-2.1,0.5c-0.5,0.1-1.1,0.4-1.6,0.5c-5.1,0.4-10,2-15.1,2.4c-2.5,0.2-5.2-1.7-3.7-5.2c0.4-0.9,0.9-1.9,1.5-2.7
			c2.6-3.6,4.8-7.4,6.9-11.2c3-5.4,6.4-10.7,9.8-15.9c2.1-3.2,3.6-6.7,5.7-10c0.6-0.9,1.3-1.8,1.9-2.8c0.7-1,1.4-1.2,2.4-0.4
			c0.7,0.6,1.6,1,2.6,1.1c2.7,0.3,4.1-0.7,4.7-3.3c0.5-2.4,0.3-4.6-1.6-6.4c-0.2-0.2-0.3-0.4-0.5-0.5c0-0.1,0-0.1-0.1-0.4
			c0.5-0.5,1-0.3,1.4,0c1.3,1.1,2.9,1.7,4.4,2.5c1.2,0.6,2,1.5,2.4,2.8c0.8,2.2,1.4,4.4,3,6.2c0.8,1,1.6,1.5,2.8,1.5
			c1.8,0,3.6,0.1,5.3-0.9c1.3-0.8,2.6-0.5,4.1,0.1c6.7,2.9,12.7,7,19.1,10.4c4.7,2.5,9.2,5.4,13.8,8.2c1.9,1.1,3.9,2.2,5.7,3.5
			c1.2,0.9,2,2,2.2,3.6C159.8,693.2,158.2,695.2,154.9,695.3z M179.1,680.3c-2.5-3.6-6.4-4.3-10.4-4.5c-1.5-0.1-2.8,0.8-3.9,1.7
			c-1.7,1.3-3.3,2.8-4.4,4.7c-1,1.7-1.5,1.9-3.3,0.9c-3.5-1.9-7-3.8-10.4-5.9c-8.3-5.2-17.1-9.7-25.6-14.7c-0.5-0.3-1-0.6-1.4-0.9
			c-1.6-0.9-2.5-2.1-2.1-4.1c0.3-1.5,0.2-3.2-0.3-4.7c-1-3-3.4-4.3-5.9-5.6c-0.6-0.3-1.3-0.1-1.8,0.2c-1.5,0.8-3.1,1.3-4.3,2.6
			c-1.1,1.2-2.3,1.4-3.7,0.6c-1.2-0.6-2.5-1.2-3.7-1.8c-1.3-0.7-1.5-1.1-1-2.5c0.5-1.5,1.2-3,2-4.3c2.6-4,5.1-8.1,7.4-12.3
			c0.8-1.5,2-2.7,2.8-4.2c0.6-1,1.5-1.4,2.8-1.3c6.4,0.1,12.8,0.7,19.2,0.7c3.8,0,7.7,0.3,11.5,0.4c0.8,0,1.6,0.3,2.3,0.5
			c0.9,0.2,1.7,0.5,2.6,0.4c2.9-0.3,5.7,0.2,8.5,0.7c0.8,0.2,1.6,0.1,2.3-0.2c1.4-0.6,3-0.5,4.5-0.4c6.3,0.3,12.6,1.1,18.9,1.4
			c4.9,0.3,9.9,0.4,14.8,0.5c7.9,0.1,15.7,2,23.6,1.4c3.4,0.8,7-0.1,10.4,1.1c0.4,0.2,0.9,0,1.4,0c0.6,0,1.4-0.3,1.9-0.1
			c3.2,1.4,6.4,0.3,9.6,0.3c3.9,0,7.8,0.2,11.7,0.9c0.5,0.1,1.2,0.2,1.7,0.1c2-0.6,3.9-0.1,5.9,0.6c2.6,0.9,5.4,0.6,8.1,0.3
			c2.2-0.3,4.5-0.1,6.7-0.2c4.3-0.1,8.5,1,12.8,1.3c0.7,0.1,1.5,0.1,2.2,0c1.9-0.3,3.8,0,5.7,0c5.7,0,11.3,0.8,17,0.6
			c3.9-0.2,7.8,0.5,11.7,0.6c2.1,0,4.2,1,6.4,1c0.9,0,1.5,0.6,1.8,1.3c0.5,1,1,2,1.4,3c2.3,4.9,6.4,7.2,11.7,6.3
			c1.9-0.3,3.1,0.2,4,1.8c1.2,2.1,2.4,4.2,3.5,6.3c1.7,3.2,3.1,6.5,4.9,9.6c1.1,1.9,1,2.9-0.4,4.6c-1.4,1.6-1.8,3.5-2.5,5.4
			s-1,2.3-3,2.4c-1.8,0.1-3.5,0-5.3,0c-7.3,0.6-14.5,0.4-21.8,0.6c-4.6,0.1-9.2,0.4-13.8,0.6c-9.9,0.5-19.8,1.2-29.7,0.8
			c-1.5-0.1-3,0.4-4.5,0.6c-3,0.4-6,0.8-9-0.2c-0.6-0.2-1.1,0-1.6,0.2c-1.6,0.8-3.4,0.8-5.2,0.8c-6.4,0-12.8-0.1-19.2,0.1
			c-3,0.1-6.1,0.1-9.1,0.1c-3.4,0.1-6.9,0-10.3,0.6c-1.2,0.2-2.6,0.1-3.8,0.1c-2.1,0-4.1,0-6.2,0.3c-1.8,0.3-3.5-0.3-5.2-0.8
			c-2-0.6-3.8-0.6-5.5,0.6c-0.7,0.4-1.4,0.6-2.3,0.6c-3.1,0.3-6.2,0.3-9.3,0.6c-2.9,0.3-5.7,0.5-8.6,0.6
			C182.3,683,180.5,682.4,179.1,680.3z M357.2,709.3c-2.2,0.1-4.3,0.9-5.9,2.7c-1.1,1.2-2.4,2.2-3.2,3.6c-1.7,2.9-2.1,6-1.8,9.3
			c0,0.4,0.2,0.8,0.2,1.2c0.2,2.1-0.5,2.9-2.6,2.4c-5.6-1.1-11.1-2.3-16.7-3.4c-6.5-1.4-13.1-2.6-19.6-4.3c-4.6-1.2-9.4-1.7-14-3.1
			c-1.1-0.3-2.2-0.4-3.3-0.6c-0.2,0-0.5,0-0.7-0.1c-4.1-2.2-9-1.1-13.1-3.5c-0.4-0.2-0.9-0.3-1.4-0.3c-4.6,0.2-8.8-1.3-13.2-2.2
			c-2-0.4-4-1.1-6.1-1.3c-1.9-0.2-3.4-1.5-5.2-1.7c-3.6-0.3-7.1-1.3-10.8-1.6c-4.2-0.3-8.2-1.3-12.2-2.3c-2.6-0.6-5.4-0.8-7.8-2.2
			c-0.3-0.2-0.6-0.2-0.9-0.2c-2.6,0.3-5.1-0.5-7.5-1.1c-4.7-1.2-9.6-1.9-14.3-2.9c-3.5-0.8-7-1.7-10.6-2.1c-1.8-0.2-2.8-2-4.5-2.6
			c-0.2-0.1-0.4-0.7-0.4-1.1c0-1.4-0.1-2.7,0-4.1c0.1-1.2,0.8-1.9,2-2c2.6-0.2,5.2-0.9,7.3-0.6c2.4,0,4.3-0.1,6.1,0.4
			c0.9,0.2,1.7,0.1,2.6-0.2c1.4-0.4,2-0.4,2.5,0.2c0.8-0.6,1.7-0.9,2.9-0.9c0.8,0,1.4,0.2,2,0.4c0.6-0.3,1.3-0.4,2-0.4
			c0.4,0,0.7,0,1.1,0.1c0.3-0.1,0.6-0.1,0.9-0.1h1c0.3,0,0.6,0,0.9,0.1c0.9-0.7,2-1.1,3.1-1.1h5c0.8,0,1.6,0.2,2.2,0.6
			c0.8-0.1,1.6-0.2,2.4-0.2c3-0.3,5.9-0.2,8.8-0.1c2.8,0.1,5.6-0.2,8.3-0.5c1.6-0.2,3.2-0.2,4.8,0c2.6,0.3,5.2,0.6,7.8-0.4
			c0.4-0.2,1-0.2,1.4-0.1c1.9,0.5,3.8,0.3,5.7-0.2c2.3-0.6,4.5-0.2,6.7,0.2c1.3,0.2,2.5,0.2,3.8-0.1c3.5-0.7,6.9-1,10.4,0.1
			c0.5,0.2,0.9,0.1,1.4,0c3.9-0.9,7.9-0.9,11.9-1.2c5.1-0.3,10.2-0.5,15.3-0.8c5.9-0.3,11.8-1.4,17.7-0.3c1.4,0.3,2.8-0.4,4.3-0.4
			c6.7,0,13.4,0,20.2,0c3.4,0,3.6,0.2,4.9,3.4c0.8,2,1.9,3.9,3.5,5.4c1.4,1.3,1.7,2.8,1.2,4.6c-1.2,4.1-1.9,8.3-2.9,12.4
			C360.2,709.1,359.7,709.2,357.2,709.3z M381.2,757.1c-3,3.3-6,6.6-9,9.9c-2.2,2.4-3.9,5.1-6.3,7.3c-1.9,1.8-1.9,1.7-4.2,0.8
			c-1.1-0.4-1.7-1.2-1.6-2.3c0.2-3.8-0.6-7.5-0.4-12.4c-1.1-6,0-13.3-0.9-20.4c-0.2-1.3,0.3-2.4,1.5-3c2.2-1.1,4.3-2.2,6-3.9
			c0.8-0.8,1.5-0.3,2,0.4c1,1.4,2,2.9,3,4.4c3.2,4.8,6.3,9.6,9.5,14.4c0.4,0.6,0.6,1.3,0.9,1.9C382.2,755.3,382,756.2,381.2,757.1z
			 M382.8,750.7c-0.8-1-1.4-2.1-2.1-3.2c-3.7-5.8-7.4-11.6-11.1-17.4c-0.7-1.1-1-2.3-1.1-3.4c0.4-2.6,0.3-4.9-0.1-7.3
			c-0.4-2.3-1.3-4.3-2.9-5.9c-1.9-1.8-2.4-4-1.8-6.4c1.1-4.6,1.9-9.2,3.4-13.7c0.5-1.6,1.4-2.5,3.1-2.3c2.8,0.2,4.9-1,6.7-3.1
			c0.4-0.5,0.9-0.9,1.3-1.4c1.5-2.3,1.8-2.7,5.3-1.4c3.6,1.3,7,3,10.6,4.5c10.4,4.5,20.8,9,31.2,13.5c0.1,0.1,0.3,0.1,0.4,0.2
			c2.2,1,2.4,1.8,0.8,3.5c-5,5.5-10.1,10.9-14.9,16.5c-3.5,4.1-7.4,7.9-10.7,12.3c-1.7,2.3-4,4.2-5.8,6.4c-2.6,3.1-5.5,6-8.3,8.9
			C385.1,752.8,384.3,752.7,382.8,750.7z M435.3,711.6c-2.7,4.7-5.5,9.4-8.3,14c-4.4,7.4-8.9,14.8-13.4,22.1
			c-3.7,6.2-7.2,12.4-11.1,18.5c-1,1.5-1.7,3.1-2.6,4.6c-1.1,1.8-1.7,1.8-3.1,0.3c-0.5-0.5-1-1.1-1.3-1.7c-2.7-4.2-5.4-8.3-8-12.5
			c-1.1-1.7-1-2,0.3-3.6c5.1-5.8,10.5-11.4,15.5-17.3c5.6-6.5,11.5-12.6,17.2-18.9c2.5-2.8,5-5.6,7.5-8.4c2.2-2.3,2.3-2.3,5.1-0.9
			c0.7,0.3,1.5,0.6,2.2,1c0.4,0.2,0.7,0.5,0.6,1.1C435.8,710.4,435.6,711,435.3,711.6z M440.1,703.8c-1,1.5-1.4,1.6-3.2,0.9
			c-0.6-0.2-1.2-0.4-1.8-0.7c-1.1-0.7-1.4-1.6-0.5-2.6c2-2.2,3.8-4.7,6.1-6.7c0.6-0.5,1.2-0.7,2-0.3s1.5,1,1.7,2
			c-0.2,0.3-0.3,0.7-0.5,1C442.6,699.6,441.4,701.7,440.1,703.8z M451.4,710.8c-2.4-1.2-4.8-2.2-7.3-3.1c-2-0.7-2.2-1.6-1.1-3.3
			c1.2-1.9,2.4-3.8,3.6-5.7c0.3-0.5,0.7-1.1,1.5-1.2c0.2,0.1,0.5,0.2,0.8,0.4c6.4,4.1,13.1,7.6,19.7,11.4c3.6,2.2,7.2,4.5,10.9,6.5
			c3.3,1.8,6.5,3.7,9.7,5.7c9.3,5.8,19.2,10.5,28.3,16.6c0.7,0.5,1.4,0.8,2.2,1c0.7,0.2,1.3,0.6,1.7,1.2c0.1,0.2,0.2,0.5,0.1,0.7
			c-0.1,0.4-0.5,0.4-0.8,0.2c-1.6-1-3.5-1.7-5.2-2.4c-5-2.2-10.1-4.5-15.1-6.6c-1.5-0.7-3.1-1.3-4.5-2.2c-2.5-1.6-5.5-2-8.2-3.3
			c-5.6-2.6-11.4-4.7-16.9-7.3C464.3,716.3,457.7,713.9,451.4,710.8z"/>
	</g>
</g>
<g id="Capa_3" class="st0">
	<path class="st1" d="M-9.6,87.9c-0.5,3.1-2.6,4.9-5.3,6.2c-9.3,4.8-19,8.9-28.3,13.8c-8.7,4.6-17.7,8.6-26.7,12.5
		c-5.1,2.2-9.9,4.6-16.2,2.5c-7.3-2.5-12.1,0-14.5,6.6c-2.5,7.2-8.6,8.3-14.8,10.8c0-0.1,0.1-0.2,0.1-0.3c-1.4,0.8-3.2,1.3-5.2,1.3
		l0,0v2.1c4.8,7,10.2,13.5,15,20.5c3.7,5.4,7.9,10.3,11.9,15.5c1.2,1.6,3,2.2,4.9,1.8c6.6-1.3,13.3-0.3,20-1
		c8.3-0.9,16.6-0.9,24.9-1.3c6.9-0.4,13.9-1.1,20.9-0.4c3.5,0.4,7,0.2,10.5-0.4c4.8-0.8,9.6-0.6,14.5-0.8c12-0.6,24-0.4,36-1.2
		c9-0.6,18-0.2,26.9-1.4c4-0.6,8.3,0.2,12.4,0.3c3.5,0.1,7,0.1,10.4-0.8c2.3-0.6,4.6-0.9,6.9-0.7c7.3,0.6,14.7,0.4,21.8-0.3
		c6.8-0.7,13.6-0.7,20.4-1.2c7.1-0.6,14.2-1.1,21.3-1.3c6.8-0.2,13.6-0.2,20.4-1c2.8-0.3,5.6,0.1,8.5,0c9-0.1,18-0.9,26.9-1.5
		c14-0.8,28-0.2,42-1.6c6.3-0.6,12.7-0.1,19-0.2c2.9,0,4.7,1.1,5.7,3.9c1.3,3.5,3.1,6.6,5.9,9.2c5.3,4.8,11.8,5.5,17.9,1.8
		c0.4-0.3,0.8-0.6,1.3-0.8l10.3-11.6c1.1-2.6,1.3-5.1,0.5-7.8c-1.1-3.3-0.4-7.4-4.1-9.8c-1.1-0.7-0.5-2.1,0.1-3.2
		c4.3-7.5,8.8-15,13.7-22.1c1.3-1.8,2.9-2.7,5.1-2.6c1.8,0.1,3.7-0.1,5.5,0.1c9.4,0.7,18-8.1,18.2-17c0.1-4.4,1.7-6.7,5.8-8
		c7-2.3,13.9-4.8,20.7-7.4c13.1-5,26.4-9,39.4-14.3c3.7-1.5,7.5-2.8,11.3-3.9c3.2-1,6.4-0.7,8.7,2.1c3.5,4.3,8.5,6.9,12,11.2
		c1.5,1.9,4,2.7,6.3,1.1c5.5-3.9,11.9-5.9,17.9-8.8c15.9-7.8,31.7-15.7,47.7-23.2c18.4-8.7,36.6-17.7,55-26.5
		c17-8.1,34.1-16.1,50.9-24.5c1.3-0.7,2.7-1.2,4.1-1.9c3.4-1.6,6.2-1,9.1,1.7c5.4,5,11.8,6.7,19,3.9s11.6-8.1,12.3-15.7
		c0.5-4.5,2.4-6.5,6.4-7.6c7.4-2,14.7-4.3,22.1-6.5c3.2-1,5.7-0.3,8.2,1.9c8.2,7.2,19.4,6.7,26.3-1.3c5.2-6,7.6-18.9-2.6-26.7
		c-3.2-2.4-4-4.8-2.5-8.5c1.9-4.6,3.1-9.5,4.7-14.2c1.3-4,2.7-5,6.9-5.2c1.7-0.1,3.3,0,5-0.1c6.6-0.5,11.1-4.3,14.2-9.8
		c1.6-2.7,1-3.9-1.9-4c-9.7-0.1-19.4-0.1-29,0c-2.7,0-3.2,1.1-2.1,3.5c0.7,1.7,1.9,3.1,3.2,4.5c2.1,2.3,2.8,4.8,1.7,7.8
		c-2.1,5.8-4.1,11.6-6.2,17.4c-1.1,3-3.2,4.6-6.4,4.7c-3.6,0.1-6.9,1.3-9.9,3.3c-2.9,2-5.9,1.9-9,0.8c-8.5-2.9-17.2-5.5-25.6-8.6
		c-25.4-9.1-51.2-17.4-76.8-25.9c-6.2-2.1-12.3-4.2-18.4-6.4c-2.7-1-5.4-1.5-8.4-0.4c9.6,5.2,20.5,6.9,30.4,12.1
		c-1.4,1.3-2.9,0.4-4,0.1c-9.8-2.7-19.6-5.5-29.4-8.3c-4.2-1.2-8.3-2.6-12.4-4c-2.9-0.9-5.7-0.7-8.8-0.4c0.8,1.9,2.1,1.9,3.1,2.2
		c15.7,4.5,31.4,9,47.1,13.6c8.5,2.5,16.9,5.2,25.4,7.7c17.4,5.1,34.9,10.1,52.3,15.3c7.6,2.3,15.2,5,22.7,7.7
		c4.2,1.5,4.5,2.3,3.9,6.8c-0.3,2-0.4,4,0,6c0.4,2.3-0.6,3.8-2.9,4.5c-8.3,2.5-16.5,5.1-24.8,7.7c-2.3,0.7-4.1-0.2-5.7-2.1
		c-10.3-11.7-22.9-7.9-29.4-0.2c-4.5,5.4-4.8,5.2-10.6,1.5c-28.7-18.3-57.3-36.6-86-55c-7.4-4.8-15.2-9-22.4-14.2
		c-1.7-1.2-3.6-2.3-5.9-1.2c0.3,2.1,2,2.5,3.1,3.2c19.3,12.3,38.6,24.5,57.9,36.8c11.7,7.4,23.4,14.8,35.1,22.2
		c6.3,4,12.6,8.2,18.9,12.3c1.1,0.7,2.3,1.4,3.3,2.3c3.5,3.1,3.1,6.6-0.9,8.8c-1.6,0.9-3.3,1.5-5.1,2.1
		c-31.8,11.5-63.7,23-95.5,34.5c-20.6,7.4-41.1,14.8-61.7,22.2c-4.9,1.7-9.8,3.2-14.6,5.1c-4,1.6-7.2,0.8-9.7-2.6
		c-3.2-4.3-6.3-8.6-9.4-13c-7.3-10.2-14.4-20.5-21.9-30.5c-9.9-13.2-19.4-26.6-29.1-39.9c-1.9-2.7-2-3.7,0.2-6.7
		c6.4-8.5,12.9-17,19.4-25.5c6.9-9,13.9-17.9,20.9-26.9c0.6-0.8,1.3-1.5,1.8-2.4c0.4-0.6,0.6-1.3,0.1-1.9c-0.5-0.8-1.3-0.9-2.2-0.8
		c-1.9,0.3-2.8,1.8-3.8,3c-4.1,5.2-8.2,10.5-12.3,15.8c-8.2,10.5-16.4,21-24.6,31.5c-3.3,4.2-4.8,4.2-8-0.2c-9.4-12.9-18.7-26-28-39
		c-2.1-3-4.2-6-6.2-9.1c-0.6-0.8-1.2-1.7-2.2-2c-1.1-0.4-2.4-0.7-3.3,0.1c-1.2,1.1-0.1,2.1,0.6,3c6.7,9.4,13.3,18.8,20.1,28.1
		c4.9,6.7,9.3,13.8,14.7,20.3c0.3,0.4,0.6,0.8,0.8,1.2c3.9,6,4.1,7.6-0.5,12.8c-4.1,4.6-7.5,9.8-11.3,14.6c-3.2,4.1-5,4.3-9,0.8
		c-6.6-5.8-13.1-11.8-19.7-17.7c-2.6-2.4-4-4.7-2.6-8.7c2.5-7.1,0.5-11.8-5.9-15.6c-3.7-2.2-4.7-4.8-4.2-9.1
		c0.9-8.4,1.1-16.9,1.5-25.4c0.1-1.6,0.2-3.6-1.7-4.3c-2.2-0.9-4.6-0.9-6.8,0.1c-1.4,0.7-1.3,2.2-1.4,3.5c-0.3,4.9,0.8,9.6,1.4,14.4
		c0.5,4.1,1.1,8.3,1.5,12.4c0.1,1.1,0.1,2.3-0.1,3.5c-0.6,5.4-3.8,6.9-8.2,3.7c-10.6-7.6-21-15.3-30.8-23.8
		c-5.2-4.5-10.6-8.6-16.3-12.4c-2.5-1.7-5-2.4-7.9-1.5c0.1,1.7,1.4,2,2.3,2.6c5.5,3.7,11.1,7.4,15.8,12.2c0.6,0.6,1.2,1.1,2,1.5
		c9.7,5.4,17.4,13.4,26.3,19.8c2.2,1.6,4.3,3.2,6.5,4.7c2,1.4,3.4,3.1,2.8,5.8c-0.9,4.4,0.3,8.2,3.6,11.4c2.5,2.4,3.6,5.6,3.2,9.1
		c-1.3,12.6-0.8,25.3-1.1,38c-0.1,5.4-2.5,8.9-7.4,12c-6.6,4.2-13.8,4.9-20.9,6.2c-14.3,2.7-28.7,4.6-42.9,7.5
		c-9.8,2-19.9,1.8-29.4,5.4c-0.3,0.1-0.6,0.2-1,0.2c-11.9,0.6-23.2,4.5-34.9,5.9c-14.7,1.7-29.2,5.1-43.9,6.8
		c-10.4,1.2-20.6,3.7-30.9,5.7c-3.6,0.7-7.2,1.5-10.9,1.3c-1.1-0.1-2.4,0-3.5,0.4c-10.4,3.1-21.1,4.8-31.8,6.5
		C49.4,74.5,40.7,76,32,77.7c-1.9,0.4-4,0.4-6,0.2c-3.4-0.3-5-3-3.1-5.6c4.1-5.5,6-12.3,11.3-17c2.4-2.1,2.9-5.5,4.7-8.2
		c8.6-12.5,17-25.1,25.3-37.8c2.9-4.4,5.1-9.3,8.5-13.5C74-5.9,75.2-7.8,77-9.1c0.6-0.5,1.4-1.1,1.6-1.9c1.7-6.1,5.8-10.8,9.1-16
		c9.2-14.5,18.2-29.1,28.4-43c2.1-2.8,4.3-5.5,5.8-8.7c0.6-1.3,1-2.6-0.5-3.5c-1.4-0.8-2.2,0.3-2.9,1.2c-0.8,1-1.7,2.1-2.3,3.2
		C108-64,99.1-50.7,90-37.6c-4.6,6.6-8.2,13.8-13,20.2C70.6-9.4,66.7-0.7,61.2,7C54.3,16.4,49,26.8,42.3,36.4
		c-4.8,6.8-9.5,13.7-13.9,20.8c-1.2,2-2.5,3.9-4.9,5.2c-0.6-5.4,1.2-10.1,3.1-14.3c2.5-5.5,4-11.3,6.3-16.8
		C37.2,20.5,41,9.5,45.3-1.4c4-10.2,7.4-20.7,11.1-31c2.3-6.3,4.7-12.5,7-18.7c4-11,8-21.9,11.8-33c0.5-1.5,2.3-4,0.1-4.8
		c-2.3-0.8-2.2,2.3-2.8,3.8c-3.6,9.3-7.2,18.7-10.6,28c-2.8,7.5-5.4,15.1-8.1,22.6c-3.6,9.9-7.1,19.8-10.9,29.6
		C38.7,6,34,16.7,30.7,27.9c-0.2,0.8-0.4,1.7-0.8,2.3C26,35.4,26,41.8,23.6,47.4c-2.5,5.8-3.8,12.1-6.1,17.9
		C16.8,67,16,68.6,15,70.2c-0.9,1.4-2.2,2-3.9,1.5H11c-3.8,2.1-8,2.8-12.5,2.8c-0.1,0-0.2,0-0.3,0c-2.8,2.9-6.8,4.2-11.4,3.5
		c-1.8-0.3-3.6-0.6-5.4-0.9c-1.8-0.3-3.2-1.2-4.2-2.7c-0.5,0.1-1.1,0.1-1.7,0.1c-0.8,0-1.5-0.1-2.1-0.2c-0.6,0.1-1.3,0.2-2,0.2
		c-1.3,0-2.4-0.2-3.5-0.5c-1.3,0.7-2.6,0.9-4.3,0.6c-9.7-1.5-19.4-3.1-29.2-3.9c-8.3-0.7-16.6-1.9-24.7-3.5c-10-2-20.2-2-30.1-3.9v4
		c1.8,0.3,3.6,0.8,5.4,0.9c11,0.2,21.9,2.2,32.7,3.7c10.4,1.4,20.8,3,31.2,4.4c11.5,1.5,23.1,2.9,34.7,4.4c1.3,0.2,2.6,0.6,3.8,1.2
		C-9.9,83-9.1,84.8-9.6,87.9z M354.2,3.8c-5,6.7-10.5,12.9-15.2,19.7c-1.3,1.9-3.2,3.4-4.8,5.1c-1.2,1.3-2.6,1.3-4,0.2
		c-2-1.5-4-3.1-6.4-3.8c-3.8-1.2-4.8-3.7-4.9-7.6c-0.2-8,1.1-15.9,1.2-24.6c-0.9-4.8,0.9-10.2,0.9-15.7c0-2-0.1-4.1,2.4-5
		s4.8-1.3,7,0.8c1.8,1.7,3.8,3.2,5.5,5c5.6,5.7,11.5,11.1,17.5,16.3C357.6-2.1,357.6-0.9,354.2,3.8z M462.5,75.1c-2-2-3.5-4.4-5-6.9
		c-1.3-2.2-0.9-3.1,1.5-4.3c0.6-0.3,1.3-0.4,1.9-0.7c18.4-6.5,36.7-13,55.1-19.6c22.7-8.2,45.4-16.5,68.1-24.8
		c0.6-0.2,1.2-0.5,1.9,0.1c0.2,1.3-0.9,1.6-1.8,2c-1.4,0.6-2.9,0.8-4.2,1.6c-11.8,7-24.7,11.7-36.8,18
		c-14.5,7.5-29.4,14.2-44.1,21.3c-10.1,4.8-20.1,9.7-30.2,14.5C465.5,78.1,465.2,77.9,462.5,75.1z M443,71.1
		c0.2-0.6,0.3-1.1,0.6-1.4c1.6-2,7-2.5,8.6-0.6c2.4,2.8,4.6,5.7,6.5,8.8c1.4,2.2-0.1,4.3-2.8,4.3c-1.4,0-2.7-0.6-3.6-1.5
		c-2.8-2.6-5.5-5.3-8.3-8C443.6,72.3,443.3,71.6,443,71.1z M394.9,27.6c-2.4-2.3-4.8-4.6-7.3-6.8c-6.8-6.1-13.4-12.4-20.1-18.7
		c-1.9-1.8-2.8-3.6-1-6.1c4.6-6.1,9.1-12.4,14.2-18c3-3.2,4.1-3.1,6.6,0.4c5.4,7.4,10.7,14.9,16,22.3c10.7,14.8,21.5,29.7,32.2,44.5
		c3.2,4.5,6.4,8.9,9.6,13.4c0.7,1,2,2.4,0.3,3.4c-2.3,1.3-4.8,2.1-6.8,3c-2.5-0.1-4-1.1-5.4-2.4C420.4,51,407.6,39.3,394.9,27.6z
		 M326.5,64.1c-0.2-0.6-0.3-1.3-0.3-1.5c-0.2-3.2,1.6-4.8,3.3-6.3c4-3.6,5.6-8.1,5.5-13.4c0-1.2,0.1-2.3,0-3.5
		c-0.2-2.8,0.7-5.1,2.4-7.4c5.1-6.5,10.1-13.2,15.2-19.8c1.9-2.5,3.9-5,6.1-7.2c2.6-2.7,3.5-2.6,6.3-0.2c2.4,2.1,4.5,4.5,6.9,6.5
		c10.3,8.5,19.6,18,29.5,26.9c8.6,7.6,16.9,15.6,25.3,23.4c1.1,1,2.2,2,3.2,3.1c2.2,2.5,2,3.7-1.2,5.2c-0.8,0.3-1.6,0.6-2.4,0.8
		c-3.9,1.4-7.8,2.8-11.7,4.2c-18,6.5-36.1,12.9-54.1,19.4c-4,1.4-7.3,1.2-10.4-2.1c-3.4-3.6-7.8-5.8-12.9-5.8
		c-3.3,0-4.7-1.7-5.7-4.6C329.6,76,328.3,70,326.5,64.1z M325.4,88.7c-2.2,1.8-4.6,3.6-5.6,6.3c-1.7,5.2-5.3,6.3-10.4,6.5
		c-16.3,0.4-32.6-0.8-48.9-0.4c-9.6,0.3-19.3-1.5-28.9-1.4c-14.7,0-29.2-2.2-43.9-1.4c-7.6,0.4-15.2-1.2-22.9-0.1
		c-3.4,0.5-6.9-0.7-10.4-0.8c-10.8-0.4-21.6,0-32.5-0.8c-11.8-0.8-23.6-0.2-35.5-1.1c-4.6-0.4-8.6-1-11.8-5.2
		c-3.7-4.9-9.6-3.8-12.7,1.8c-0.9,1.6-1.9,3.2-3.7,2.8c-5.1-1.1-10,0.3-14.9,0.5c-4.4-0.4-8.7-0.8-13-1.1c-1.4-0.1-2.6-0.6-3.3-2
		c-1.8-3.6-0.2-8.3,3.4-10.1c1.3-0.7,2.8-1.4,4.2-1.5c4.2-0.3,8.2-1.6,12.3-2.2c19.4-3.2,38.8-6.1,58.1-10.1
		c14.5-3,29.4-3.4,43.9-6.8c9.2-2.2,18.6-4.1,28.1-4.8c2.5-0.2,5.2-0.1,7.4-1c6.7-2.7,14-2.3,21-4.2c9-2.4,18.3-3.5,27.5-5.2
		c20-3.6,40-7.2,60.1-10.8c4.1-0.7,6.1,0.5,5.3,5c-0.8,4.4,0.1,8.7,3,12.3c4.1,5.2,9.1,8.8,15.9,9.3c3,0.2,4.4,1.8,5.2,4.5
		c1.6,5.6,3.2,11.2,4.9,16.8C327.8,85.6,327.1,87.3,325.4,88.7z M-6.4,100.7c7.9,8.4,19.9,9,28.1,1c3.3-3.2,6.8-4.6,11.2-4.4
		c7.3,0.4,14.6,0.8,21.9,1.6c3.1,0.3,6.5-0.3,9.4,1.1c3.6,1.6,7.1,1.5,10.7,0.6c2.4-0.5,4.8-1.2,7.4-1c14,0.8,27.9,1.8,41.9,1.8
		c9.7,0,19.3,0,29,0.6c8.2,0.6,16.6,1.2,24.9,0.4c6-0.6,11.9,1.1,17.9,1.1c11.8,0.1,23.6-0.1,35.5,0.6c10.9,0.6,21.9,2,29.4,1.4
		c16.7-0.5,29.8,1.4,43,0.9c2.7-0.1,5.3,0,8,0c2.5,0,4.5,0.7,5.3,3.5c0.7,2.3,2.3,4.1,3.7,5.9c2.4,2.9,2.3,5.6,0.4,8.7
		c-2.8,4.3-5.4,8.8-8.2,13.2c-1.5,2.4-3.2,4.7-4.9,7c-1.6,2.2-3.8,3.1-6.6,2.8c-9.3-1-16.2,2.4-20.5,11c-1.1,2.2-2.8,3.8-5.4,4
		c-9.6,0.7-19.2,2-28.9,2c-15.5-0.1-31,0.5-46.5,1.4c-9.5,0.6-19,0.7-28.5,0.7c-2.8,0-5.8-1.1-8.4-0.4c-5.1,1.4-10.2,1.1-15.3,1.7
		c-9.3,1.1-18.6,0.8-28,0.6c-4.4-0.1-9,0.4-13.3,1s-8.6,1-12.9,1.1c-7,0.1-14-0.3-21,0.4c-8,0.8-15.9,2-23.9,1.6
		c-11.4-0.5-22.6,1.5-34,1.1c-0.5,0-1,0.1-1.5,0.1c-9.1,0.6-18.1,2.7-27.2,0.3c-0.9-0.2-2,0-3,0.3c-6.8,2-13.9,1.3-20.7,1.9
		c-10.4,0.8-20.9,1.7-31.4,1.4c-5.7-0.1-11.3-0.3-17,0.7c-3.5,0.6-6.5-0.4-8.7-3.6c-5.5-7.8-11.1-15.4-16.7-23.1
		c-0.5-0.7-0.9-1.4-1.2-2.2c-1.5-3.1-1.2-4.1,1.8-5.5c4.7-2.2,8.9-3.4,13.9,0.3c5.1,3.8,9.6,2.6,14.3-1.7c2.8-2.6,4-5.8,3.4-9.5
		c-0.5-3.2,0.8-5.1,3.5-6.3c2.1-1,4.2-2.1,6.3-3.1c17.7-7.8,34.9-16.7,52.4-24.8C-10.7,96.2-10.8,96-6.4,100.7z"/>
</g>
<g class="st2">
	
		<ellipse transform="matrix(0.4171 -0.9089 0.9089 0.4171 -375.0453 635.0697)" class="st3" cx="307.6" cy="609.9" rx="16.4" ry="16.4"/>
	
		<ellipse transform="matrix(0.4171 -0.9089 0.9089 0.4171 -432.224 611.3877)" class="st3" cx="260.5" cy="642.7" rx="15.8" ry="15.8"/>
	
		<ellipse transform="matrix(0.4171 -0.9089 0.9089 0.4171 -577.7315 360.1136)" class="st3" cx="-8.1" cy="630.5" rx="14.3" ry="14.3"/>
	
		<ellipse transform="matrix(0.4171 -0.9089 0.9089 0.4171 -610.8459 300.6143)" class="st3" cx="-71.1" cy="626.5" rx="14.5" ry="14.5"/>
	
		<ellipse transform="matrix(0.4171 -0.9089 0.9089 0.4171 -492.1085 638.5421)" class="st3" cx="251.8" cy="702.9" rx="17.5" ry="17.5"/>
	<ellipse transform="matrix(0.4171 -0.9089 0.9089 0.4171 -562.5 645.5435)" class="st3" cx="222" cy="761.3" rx="8.6" ry="8.6"/>
	
		<ellipse transform="matrix(0.4171 -0.9089 0.9089 0.4171 -401.1264 875.4197)" class="st3" cx="481.9" cy="750.4" rx="20.6" ry="20.6"/>
	
		<ellipse transform="matrix(0.4171 -0.9089 0.9089 0.4171 -337.122 984.3734)" class="st3" cx="598.9" cy="755" rx="13.6" ry="13.6"/>
	<polyline class="st4" points="573.7,803.5 570.4,752.6 599.9,751.8 589.1,713.2 300.2,606.5 473.2,754.9 211.2,786 245,701.4 
		490,743.6 258.5,641.7 -99.2,661.3 -81.1,622 33.7,721.4 59.4,711.5 	"/>
	<line class="st4" x1="262.1" y1="638.7" x2="-71.1" y2="626.8"/>
	<polyline class="st4" points="245,701.4 112.2,774.4 -8.3,630.9 168.3,617.8 221.6,759.9 280.1,863.4 488.5,753.4 580.9,810.1 
		599.9,751.8 480.4,743.3 	"/>
</g>
<g class="st5">
	
		<ellipse transform="matrix(0.2222 -0.975 0.975 0.2222 -602.7683 795.3129)" class="st6" cx="197.1" cy="775.5" rx="10.1" ry="10.1"/>
	
		<ellipse transform="matrix(0.2222 -0.975 0.975 0.2222 -558.8657 798.9327)" class="st6" cx="221.3" cy="749.7" rx="9.7" ry="9.7"/>
	<ellipse transform="matrix(0.2222 -0.975 0.975 0.2222 -405.6675 937.9103)" class="st6" cx="385" cy="723.2" rx="8.8" ry="8.8"/>
	
		<ellipse transform="matrix(0.2222 -0.975 0.975 0.2222 -370.3015 971.0219)" class="st6" cx="423.5" cy="717.6" rx="8.9" ry="8.9"/>
	
		<ellipse transform="matrix(0.2222 -0.975 0.975 0.2222 -524.1298 767.5358)" class="st6" cx="219" cy="712.3" rx="10.8" ry="10.8"/>
	
		<ellipse transform="matrix(0.2222 -0.975 0.975 0.2222 -477.8742 747.5255)" class="st6" cx="229.6" cy="673.3" rx="5.3" ry="5.3"/>
	
		<ellipse transform="matrix(0.2222 -0.975 0.975 0.2222 -637.189 626.6091)" class="st6" cx="74.1" cy="712.7" rx="12.7" ry="12.7"/>
	<ellipse transform="matrix(0.2222 -0.975 0.975 0.2222 -704.219 566.5624)" class="st6" cx="3" cy="724.7" rx="8.4" ry="8.4"/>
	<polyline class="st7" points="334.1,682.8 348.3,673.6 430.1,719.1 436.1,693.1 222.7,750 70.2,717.8 223.3,712.3 233,657 
		78.8,708.9 202,776.6 14.2,748.6 2.8,726.7 20.5,722.5 12.2,692.2 	"/>
	<line class="st7" x1="423.5" y1="717.5" x2="220.9" y2="752.3"/>
	<polyline class="st7" points="76,716.7 2.8,726.7 6.9,689.2 69.8,711.7 181.7,619 230,674.1 280.1,753.1 385.1,722.9 294.2,651.5 
		223.3,712.3 	"/>
</g>
<g>
	<g class="st5">
		
			<ellipse transform="matrix(0.9999 -1.344413e-02 1.344413e-02 0.9999 -7.6157 11.2296)" class="st6" cx="831.4" cy="572.1" rx="12.5" ry="12.5"/>
		
			<ellipse transform="matrix(0.9999 -1.344413e-02 1.344413e-02 0.9999 -8.1267 10.943)" class="st6" cx="809.9" cy="609.9" rx="12" ry="12"/>
		<path class="st6" d="M623,699.8c-6.8,0.8-12.6-4.9-12.1-11.7c0.4-5.1,4.5-9.2,9.5-9.8c6.8-0.8,12.6,4.9,12.1,11.7
			C632.1,695.1,628,699.3,623,699.8z"/>
		
			<ellipse transform="matrix(0.9999 -1.344413e-02 1.344413e-02 0.9999 -9.452 7.8251)" class="st6" cx="577.3" cy="706.9" rx="11.1" ry="11.1"/>
		<path class="st6" d="M833.4,663.6c-13.9,10.9-30-4.5-20-18.7c0.2-0.3,0.5-0.5,0.7-0.8C828,633.8,843.9,649.4,833.4,663.6z"/>
		
			<ellipse transform="matrix(0.9999 -1.344413e-02 1.344413e-02 0.9999 -9.3876 11.1169)" class="st6" cx="822.2" cy="703.8" rx="6.6" ry="6.6"/>
		
			<ellipse transform="matrix(0.9999 -1.344413e-02 1.344413e-02 0.9999 -8.1325 13.4559)" class="st6" cx="996.8" cy="611.6" rx="15.7" ry="15.7"/>
		
			<ellipse transform="matrix(0.9999 -1.344413e-02 1.344413e-02 0.9999 -7.641 14.5657)" class="st6" cx="1079.6" cy="575.6" rx="10.3" ry="10.3"/>
		<polyline class="st8" points="1363.1,640.8 1078,574.1 1078,574.1 1058.1,551.2 825.2,572.2 967.1,653.9 797.6,760.5 818.3,655.2 
			1000,604.3 808.1,609.9 569.4,739.9 568.9,707 680,737.8 822.2,576.6 		"/>
		<path class="st8" d="M577.3,707"/>
		<path class="st8" d="M809.6,606.7"/>
		<polyline class="st8" points="818.3,655.2 751.1,748.5 621.7,621.9 738.5,622.9 821.4,702.9 943.1,642.1 1036.2,710.4 
			1069.2,621.8 1078.2,578.8 1121,684.4 		"/>
	</g>
	<path class="st9" d="M1188.4,727.8c-5.6,0.6-10.2-4.7-8.1-10.5c0.7-2,2.2-3.5,4.1-4.2c5.7-2.2,11.2,2.2,10.7,7.8
		C1194.9,724.4,1192,727.4,1188.4,727.8z"/>
	
		<ellipse transform="matrix(2.661264e-03 -1 1 2.661264e-03 124.3488 1241.3069)" class="st9" cx="684.5" cy="558.3" rx="5.5" ry="5.5"/>
	<path class="st9" d="M1129.4,695c-7,5.5-15.2-2.3-10.1-9.5c0.1-0.1,0.2-0.3,0.4-0.4C1126.7,679.9,1134.7,687.8,1129.4,695z"/>
	
		<ellipse transform="matrix(0.9999 -1.344413e-02 1.344413e-02 0.9999 -7.916 7.1404)" class="st9" cx="527.1" cy="592.4" rx="8.1" ry="8.1"/>
	<path class="st10" d="M1074,568.4"/>
	<path class="st10" d="M1185.6,713.6"/>
	<line class="st11" x1="1368.8" y1="556.8" x2="1130.1" y2="686.7"/>
	<polyline class="st11" points="1253.3,680.7 1274,575.4 922,716.2 	"/>
	<polyline class="st12" points="967,541.3 847.5,470.2 698.8,621.9 	"/>
	<line class="st13" x1="810.6" y1="650.2" x2="534.7" y2="593.6"/>
	<path class="st11" d="M698.4,559.6"/>
	<path class="st11" d="M876.4,733.8"/>
	<path class="st14" d="M876.4,733.8"/>
	<path class="st14" d="M941.1,642.4"/>
	
		<ellipse transform="matrix(0.9999 -1.344413e-02 1.344413e-02 0.9999 -9.1412 16.8825)" class="st9" cx="1251.1" cy="688.4" rx="8.1" ry="8.1"/>
	
		<ellipse transform="matrix(0.9999 -1.344413e-02 1.344413e-02 0.9999 -7.3073 18.5402)" class="st9" cx="1375.3" cy="552.8" rx="8.1" ry="8.1"/>
	
		<ellipse transform="matrix(0.9999 -1.344413e-02 1.344413e-02 0.9999 -8.5176 18.4908)" class="st9" cx="1371.1" cy="642.8" rx="8.1" ry="8.1"/>
</g>
<g class="st5">
	
		<ellipse transform="matrix(0.9851 -0.1721 0.1721 0.9851 3.1072 200.3382)" class="st6" cx="1156.9" cy="82.2" rx="10.2" ry="10.2"/>
	<ellipse transform="matrix(0.9851 -0.1721 0.1721 0.9851 7.4187 195.9781)" class="st6" cx="1133.9" cy="55.2" rx="9.8" ry="9.8"/>
	<ellipse transform="matrix(0.9851 -0.1721 0.1721 0.9851 11.0164 167.4121)" class="st6" cx="971" cy="20.2" rx="8.8" ry="8.8"/>
	<ellipse transform="matrix(0.9851 -0.1721 0.1721 0.9851 11.7538 160.709)" class="st6" cx="932.7" cy="12.6" rx="9" ry="9"/>
	
		<ellipse transform="matrix(0.9851 -0.1721 0.1721 0.9851 13.9339 196.1489)" class="st6" cx="1138.2" cy="17.7" rx="10.8" ry="10.8"/>
	<ellipse transform="matrix(0.9851 -0.1721 0.1721 0.9851 20.6348 194.0727)" class="st6" cx="1129.5" cy="-22" rx="5.3" ry="5.3"/>
	
		<ellipse transform="matrix(0.9851 -0.1721 0.1721 0.9851 14.7543 221.2843)" class="st6" cx="1283.5" cy="25.6" rx="12.8" ry="12.8"/>
	
		<ellipse transform="matrix(0.9851 -0.1721 0.1721 0.9851 13.1112 233.7025)" class="st6" cx="1354.3" cy="41.2" rx="8.4" ry="8.4"/>
	<polyline class="st15" points="1346.8,8.2 1336.8,38.2 1354.4,43.3 1341.8,64.7 1151.9,83.1 1279,21.5 1126.9,-38.5 1133.8,17.5 
		1287.2,30.9 1132.5,55.4 921.3,-12.7 925.9,13.7 1010.4,-27.8 1024.2,-17.7 	"/>
	<line class="st15" x1="1134.2" y1="57.8" x2="932.6" y2="12.4"/>
	<polyline class="st15" points="1133.8,17.5 1065.8,-47.1 970.9,19.8 1074.7,55.5 1129,-21.1 1180.4,-74 1287.9,24.8 1352.2,5.4 
		1354.4,43.3 1281.4,29.5 	"/>
</g>
<g>
	<g class="st5">
		
			<ellipse transform="matrix(0.1167 -0.9932 0.9932 0.1167 314.4133 537.301)" class="st6" cx="459.3" cy="91.9" rx="11.3" ry="11.3"/>
		
			<ellipse transform="matrix(0.1167 -0.9932 0.9932 0.1167 366.5344 533.1974)" class="st6" cx="483" cy="60.5" rx="10.8" ry="10.8"/>
		<path class="st6" d="M660.9,2c6.2,0.1,10.7,5.8,9.4,11.9c-1,4.5-5.1,7.7-9.7,7.7c-6.2-0.1-10.7-5.8-9.4-11.9
			C652.2,5.2,656.3,1.9,660.9,2z"/>
		<ellipse transform="matrix(0.1167 -0.9932 0.9932 0.1167 619.5682 698.6746)" class="st6" cx="702.6" cy="1" rx="10" ry="10"/>
		<path class="st6" d="M468.3,9.7c13.7-8.1,26.3,7.6,15.7,19.1c-0.2,0.2-0.5,0.4-0.7,0.6C469.6,37.1,457.2,21.2,468.3,9.7z"/>
		
			<ellipse transform="matrix(0.1167 -0.9932 0.9932 0.1167 451.4227 457.7248)" class="st6" cx="483.1" cy="-24.9" rx="5.9" ry="5.9"/>
		
			<ellipse transform="matrix(0.1167 -0.9932 0.9932 0.1167 242.2545 346.539)" class="st6" cx="316" cy="37.1" rx="14.1" ry="14.1"/>
		
			<ellipse transform="matrix(0.1167 -0.9932 0.9932 0.1167 152.5069 289.1015)" class="st6" cx="238.8" cy="58.8" rx="9.3" ry="9.3"/>
		<polyline class="st16" points="-8.5,-32.1 238.8,61.1 238.8,61.1 254,83.9 464.9,92.5 347.5,2.7 511.7,-72.8 480.8,19 312.2,43.2 
			484.6,60.7 713.6,-27.6 710.1,1.9 614.3,-38.7 468.1,88.9 		"/>
		<path class="st16" d="M702.6,0.9"/>
		<path class="st16" d="M482.9,63.4"/>
		<polyline class="st16" points="480.8,19 551.9,-56.6 652.8,71.9 548.4,57.3 483.7,-24 367.6,16 292.3,-56 238.9,19.1 238.8,61.1 
			211.4,-42 		"/>
	</g>
	<path class="st9" d="M154.8-64.4c5.1,0.1,8.5,5.4,6,10.3c-0.9,1.7-2.4,2.9-4.2,3.3c-5.4,1.3-9.8-3.3-8.7-8.2
		C148.6-62.1,151.5-64.4,154.8-64.4z"/>
	<ellipse transform="matrix(0.1327 -0.9912 0.9912 0.1327 380.6491 687.1538)" class="st9" cx="583" cy="126.1" rx="10" ry="10"/>
	<path class="st9" d="M207-53.1c6.9-4.1,13.3,3.8,7.9,9.7c-0.1,0.1-0.2,0.2-0.4,0.3C207.7-39.3,201.4-47.3,207-53.1z"/>
	<ellipse transform="matrix(0.1167 -0.9932 0.9932 0.1167 539.631 825.687)" class="st9" cx="734" cy="109.5" rx="7.3" ry="7.3"/>
	<path class="st17" d="M241.8,66.7"/>
	<path class="st17" d="M155.6-51.4"/>
	<line class="st18" x1="-23.5" y1="42.5" x2="205.5" y2="-45.8"/>
	<polyline class="st18" points="94.5,-54.9 63.6,36.9 366.3,17.1 	"/>
	<polyline class="st19" points="326.6,87 432.9,181.2 583.8,62.8 	"/>
	<line class="st20" x1="487.1" y1="24.4" x2="727.4" y2="107.5"/>
	<path class="st18" d="M576.9,118.7"/>
	<path class="st18" d="M438.1-58.2"/>
	<path class="st21" d="M438.1-58.2"/>
	<path class="st21" d="M369.4,16"/>
	<ellipse transform="matrix(0.1167 -0.9932 0.9932 0.1167 147.0137 42.3278)" class="st9" cx="97.3" cy="-61.5" rx="7.3" ry="7.3"/>
	<ellipse transform="matrix(0.1167 -0.9932 0.9932 0.1167 -71.277 10.3966)" class="st9" cx="-29.8" cy="45.3" rx="7.3" ry="7.3"/>
	
		<ellipse transform="matrix(0.1167 -0.9932 0.9932 0.1167 20.9405 -46.0088)" class="st9" cx="-15.4" cy="-34.8" rx="7.3" ry="7.3"/>
</g>
<ellipse transform="matrix(0.9999 -1.344413e-02 1.344413e-02 0.9999 -9.5763 12.382)" class="st9" cx="916.2" cy="718.5" rx="6.6" ry="6.6"/>
<ellipse transform="matrix(0.9999 -1.344413e-02 1.344413e-02 0.9999 -7.2343 13.125)" class="st9" cx="972.6" cy="544.6" rx="6.6" ry="6.6"/>
</svg>
